<svg width="84" height="33" viewBox="0 0 84 33" fill="none" xmlns="http://www.w3.org/2000/svg">
<g clip-path="url(#clip0_4015_15159)">
<path d="M73.5415 18.7298C73.2176 18.7298 72.9747 18.6489 72.7857 18.4599C72.6238 18.298 72.5158 18.0281 72.5158 17.7042V7.74474C72.5158 7.42085 72.5968 7.15095 72.7857 6.98901C72.9747 6.82706 73.2176 6.74609 73.5415 6.74609H75.3498C75.7547 6.74609 76.1055 6.77308 76.4024 6.80007C76.6993 6.85405 76.9692 6.93502 77.1582 7.09697C77.3741 7.25891 77.509 7.47483 77.617 7.79872C77.725 8.09561 77.7789 8.52746 77.7789 9.04028V16.4356C77.7789 17.1104 77.698 17.5962 77.509 17.9201C77.3201 18.244 77.0502 18.4599 76.6993 18.5679C76.3485 18.6759 75.8896 18.7298 75.3498 18.7028L73.5415 18.7298ZM67.7385 0.943154C67.4146 0.970145 67.1447 1.05112 66.9828 1.21306C66.8208 1.375 66.7399 1.6449 66.7399 1.96879V23.5071C66.7399 23.831 66.8208 24.0739 67.0098 24.2629C67.1717 24.4248 67.4416 24.5328 67.7655 24.5328H75.2688C76.8343 24.5328 78.1838 24.3708 79.2634 24.0469C80.343 23.7231 81.2067 23.2102 81.8545 22.5625C82.5023 21.9147 82.9881 21.051 83.258 20.0254C83.5549 18.9997 83.6898 17.8122 83.6898 16.4356V9.04028C83.6898 7.66377 83.5549 6.47619 83.258 5.45055C82.9611 4.42492 82.5023 3.58821 81.8545 2.94044C81.2067 2.26568 80.343 1.77986 79.2634 1.45597C78.1838 1.13209 76.8613 0.970145 75.2688 0.970145L67.7385 0.943154ZM57.914 15.1671C57.914 15.8149 57.887 16.4087 57.86 16.9215C57.806 17.4343 57.6981 17.8661 57.5361 18.244C57.3742 18.6219 57.1043 18.8918 56.7264 19.0807C56.3756 19.2696 55.8897 19.3776 55.2689 19.3776C54.6482 19.3776 54.1623 19.2696 53.8115 19.0807C53.4336 18.8918 53.1907 18.6219 53.0018 18.244C52.8398 17.8931 52.7318 17.4343 52.6779 16.9215C52.6239 16.4087 52.5969 15.8149 52.6239 15.1671V10.3088C52.6239 9.66106 52.6509 9.06727 52.6779 8.55445C52.7318 8.04163 52.8398 7.60979 53.0018 7.23192C53.1637 6.85405 53.4336 6.58415 53.8115 6.39522C54.1623 6.20628 54.6482 6.09832 55.2689 6.09832C55.8897 6.09832 56.3756 6.20628 56.7264 6.39522C57.1043 6.58415 57.3472 6.85405 57.5361 7.23192C57.6981 7.58279 57.806 8.04163 57.86 8.55445C57.914 9.06727 57.914 9.66106 57.914 10.3088V15.1671ZM63.69 8.52746C63.69 8.14959 63.663 7.69076 63.609 7.15095C63.555 6.61114 63.447 6.04434 63.2581 5.42356C63.0692 4.80278 62.7993 4.20899 62.4484 3.6152C62.0705 3.02142 61.5847 2.48161 60.9639 1.99578C60.3431 1.50995 59.5604 1.1051 58.6158 0.808202C57.6711 0.511308 56.5375 0.376356 55.215 0.349365C53.8924 0.349365 52.7588 0.511308 51.8142 0.808202C50.8695 1.1051 50.0868 1.50995 49.466 1.99578C48.8452 2.48161 48.3594 3.02142 47.9815 3.6152C47.6037 4.20899 47.3338 4.82977 47.1718 5.42356C46.9829 6.04434 46.8749 6.61114 46.8209 7.15095C46.767 7.69076 46.74 8.14959 46.74 8.52746V16.9485C46.74 17.3263 46.767 17.7852 46.8209 18.325C46.8749 18.8648 46.9829 19.4316 47.1718 20.0524C47.3338 20.6731 47.6307 21.2669 47.9815 21.8607C48.3594 22.4545 48.8452 22.9943 49.466 23.5071C50.0868 23.993 50.8695 24.3978 51.8142 24.6677C52.7588 24.9646 53.8924 25.1266 55.215 25.1266C56.5375 25.1266 57.6711 24.9646 58.6158 24.6677C59.5604 24.3708 60.3431 23.993 60.9639 23.5071C61.5847 23.0213 62.0705 22.4815 62.4484 21.8607C62.8263 21.2669 63.0962 20.6462 63.2581 20.0524C63.4201 19.4316 63.555 18.8648 63.609 18.325C63.663 17.7852 63.69 17.3263 63.69 16.9485V8.52746ZM38.292 15.1671C38.292 15.8149 38.265 16.4087 38.238 16.9215C38.184 17.4343 38.0761 17.8661 37.9141 18.244C37.7522 18.6219 37.4823 18.8918 37.1044 19.0807C36.7535 19.2696 36.2677 19.3776 35.6469 19.3776C35.0261 19.3776 34.5403 19.2696 34.1894 19.0807C33.8116 18.8918 33.5687 18.6219 33.3797 18.244C33.2178 17.8931 33.1098 17.4343 33.0558 16.9215C33.0019 16.4087 32.9749 15.8149 33.0019 15.1671V10.3088C33.0019 9.66106 33.0289 9.06727 33.0558 8.55445C33.1098 8.04163 33.2178 7.60979 33.3797 7.23192C33.5417 6.85405 33.8116 6.58415 34.1894 6.39522C34.5403 6.20628 35.0261 6.09832 35.6469 6.09832C36.2677 6.09832 36.7535 6.20628 37.1044 6.39522C37.4823 6.58415 37.7252 6.85405 37.9141 7.23192C38.0761 7.58279 38.184 8.04163 38.238 8.55445C38.292 9.06727 38.292 9.66106 38.292 10.3088V15.1671ZM44.0949 8.52746C44.0949 8.14959 44.0679 7.69076 44.014 7.15095C43.96 6.61114 43.852 6.04434 43.6631 5.42356C43.4741 4.80278 43.2042 4.20899 42.8534 3.6152C42.4755 3.02142 41.9897 2.48161 41.3689 1.99578C40.7481 1.50995 39.9654 1.1051 39.0207 0.808202C38.0761 0.511308 36.9425 0.376356 35.6199 0.349365C34.2974 0.349365 33.1638 0.511308 32.2191 0.808202C31.2745 1.1051 30.4918 1.50995 29.871 1.99578C29.2502 2.48161 28.7644 3.02142 28.3865 3.6152C28.0086 4.20899 27.7387 4.82977 27.5768 5.42356C27.3879 6.04434 27.2799 6.61114 27.2259 7.15095C27.1719 7.69076 27.1449 8.14959 27.1449 8.52746V16.9485C27.1449 17.3263 27.1719 17.7852 27.2259 18.325C27.2799 18.8648 27.3879 19.4316 27.5768 20.0524C27.7387 20.6731 28.0356 21.2669 28.3865 21.8607C28.7644 22.4545 29.2502 22.9943 29.871 23.5071C30.4918 23.993 31.2745 24.3978 32.2191 24.6677C33.1638 24.9646 34.2974 25.1266 35.6199 25.1266C36.9425 25.1266 38.0761 24.9646 39.0207 24.6677C39.9654 24.3708 40.7481 23.993 41.3689 23.5071C41.9897 23.0213 42.4755 22.4815 42.8534 21.8607C43.2312 21.2669 43.5011 20.6462 43.6631 20.0524C43.825 19.4316 43.96 18.8648 44.014 18.325C44.0679 17.7852 44.0949 17.3263 44.0949 16.9485V8.52746ZM24.176 0.943154C24.8508 0.943154 25.1746 1.29403 25.1746 1.9418V5.72046C25.1746 6.04434 25.0937 6.28726 24.9317 6.47619C24.7698 6.66512 24.4999 6.74609 24.176 6.74609H15.3771C15.0532 6.74609 14.8103 6.82706 14.6214 6.98901C14.4325 7.15095 14.3515 7.42085 14.3515 7.74474V23.5341C14.3515 23.858 14.2705 24.1009 14.1086 24.2899C13.9466 24.4518 13.6767 24.5598 13.3528 24.5598H9.38525C9.06137 24.5598 8.81846 24.4788 8.62952 24.2899C8.46758 24.1009 8.35962 23.858 8.35962 23.5341V1.96879C8.35962 1.6449 8.44059 1.375 8.62952 1.21306C8.81846 1.05112 9.06137 0.970145 9.38525 0.970145L24.176 0.943154Z" fill="#CCCCCC"/>
<path d="M82.1513 29.7953C82.1513 29.7683 82.1243 29.7683 82.1243 29.7413C82.1243 29.7143 82.1243 29.7143 82.1513 29.6873L83.5008 27.852C83.5548 27.771 83.5548 27.717 83.5278 27.69C83.5008 27.6631 83.4468 27.6091 83.3659 27.6091H82.3942C82.3402 27.6091 82.2862 27.6091 82.2592 27.6361C82.2323 27.6631 82.1783 27.69 82.1513 27.744L81.0987 29.1745C81.0717 29.2015 81.0717 29.2015 81.0447 29.2015C81.0177 29.2015 81.0177 29.1745 81.0177 29.1475V27.825C81.0177 27.69 80.9637 27.6361 80.8288 27.6361H80.073C80.019 27.6361 79.9651 27.6631 79.9381 27.69C79.9111 27.717 79.8841 27.771 79.8841 27.852V32.1165C79.8841 32.1704 79.9111 32.2244 79.9381 32.2514C79.9651 32.2784 80.019 32.3054 80.073 32.3054H80.8288C80.8827 32.3054 80.9367 32.2784 80.9907 32.2514C81.0447 32.2244 81.0447 32.1704 81.0447 32.1165V31.3877V31.3337C81.0447 31.3068 81.0447 31.3068 81.0717 31.2798L81.3416 30.9019C81.3416 30.8749 81.3686 30.8749 81.3956 30.8749C81.4225 30.8749 81.4225 30.8749 81.4495 30.9019L82.2862 32.1705C82.3132 32.2244 82.3402 32.2514 82.3942 32.2784C82.4212 32.3054 82.4752 32.3054 82.5292 32.3054H83.5278C83.6088 32.3054 83.6627 32.2784 83.6897 32.2244C83.7167 32.1704 83.7167 32.1165 83.6628 32.0625L82.1513 29.7953ZM76.1054 27.6091C76.0515 27.6091 75.9975 27.6361 75.9705 27.6631C75.9435 27.69 75.9165 27.744 75.9165 27.825V30.7939C75.9165 30.8749 75.9165 30.9559 75.9435 31.0638C75.9435 31.1718 75.9705 31.2798 76.0245 31.4147C76.0515 31.5227 76.1054 31.6576 76.1864 31.7656C76.2674 31.8736 76.3484 31.9815 76.4833 32.0895C76.6183 32.1974 76.7532 32.2514 76.9421 32.3324C77.1311 32.3864 77.347 32.4134 77.6169 32.4134C77.8868 32.4134 78.1027 32.3864 78.2917 32.3324C78.4806 32.2784 78.6425 32.1974 78.7505 32.0895C78.8855 31.9815 78.9664 31.8736 79.0474 31.7656C79.1284 31.6576 79.1823 31.5227 79.2093 31.4147C79.2363 31.3068 79.2633 31.1718 79.2633 31.0638C79.2633 30.9559 79.2903 30.8749 79.2903 30.7939V27.825C79.2903 27.69 79.2363 27.6361 79.1014 27.6361H78.3456C78.2917 27.6361 78.2377 27.6631 78.2107 27.69C78.1837 27.717 78.1567 27.771 78.1567 27.852V30.8209C78.1567 30.9289 78.1297 31.0099 78.1027 31.0908C78.0757 31.1718 78.0218 31.2258 77.9408 31.2528C77.8598 31.2798 77.7788 31.3068 77.6439 31.3068C77.5089 31.3068 77.428 31.2798 77.347 31.2528C77.266 31.2258 77.2121 31.1718 77.1851 31.0908C77.1581 31.0099 77.1311 30.9289 77.1311 30.8209C77.1311 30.713 77.1041 30.605 77.1311 30.4701V27.852C77.1311 27.717 77.0771 27.6631 76.9421 27.6631L76.1054 27.6091ZM75.2418 31.1178C75.3767 31.1178 75.4307 31.1718 75.4307 31.3068V32.0625C75.4307 32.1165 75.4037 32.1704 75.3767 32.1974C75.3497 32.2244 75.2957 32.2514 75.2148 32.2514H74.459C74.4051 32.2514 74.3511 32.2244 74.3241 32.1974C74.2971 32.1704 74.2701 32.1165 74.2701 32.0625V31.3068C74.2701 31.2528 74.2971 31.1988 74.3241 31.1448C74.3511 31.1178 74.4051 31.0908 74.459 31.0908L75.2418 31.1178ZM72.6237 30.4161V30.7669C72.6237 30.8749 72.5967 30.9559 72.5697 31.0369C72.5427 31.1178 72.4887 31.1718 72.4078 31.1988C72.3268 31.2258 72.2458 31.2528 72.1109 31.2528C71.9759 31.2528 71.8949 31.2258 71.814 31.1988C71.733 31.1718 71.679 31.1178 71.652 31.0369C71.625 30.9559 71.5981 30.8749 71.5981 30.7669C71.5981 30.659 71.5711 30.551 71.5981 30.4161V29.4714V29.1205C71.5981 29.0126 71.625 28.9316 71.652 28.8506C71.679 28.7697 71.733 28.7157 71.814 28.6887C71.8949 28.6617 71.9759 28.6347 72.1109 28.6347C72.2458 28.6347 72.3268 28.6617 72.4078 28.6887C72.4887 28.7157 72.5427 28.7697 72.5697 28.8506C72.5967 28.9316 72.6237 29.0126 72.6237 29.1205V30.4161ZM73.7843 29.0935C73.7843 29.0126 73.7843 28.9316 73.7573 28.8236C73.7573 28.7157 73.7303 28.6077 73.7033 28.4728C73.6763 28.3648 73.6223 28.2299 73.5414 28.1219C73.4604 28.0139 73.3794 27.906 73.2445 27.798C73.1095 27.69 72.9746 27.6361 72.7856 27.5551C72.5967 27.5011 72.3808 27.4741 72.1109 27.4741C71.841 27.4741 71.625 27.5011 71.4361 27.5551C71.2472 27.6091 71.0852 27.69 70.9773 27.798C70.8423 27.906 70.7614 28.0139 70.6804 28.1219C70.5994 28.2299 70.5454 28.3648 70.5184 28.4728C70.4914 28.5807 70.4645 28.7157 70.4375 28.8236C70.4375 28.9316 70.4105 29.0126 70.4105 29.0935V30.7669C70.4105 30.8479 70.4105 30.9289 70.4375 31.0369C70.4375 31.1448 70.4645 31.2528 70.5184 31.3877C70.5454 31.4957 70.5994 31.6306 70.6804 31.7386C70.7614 31.8466 70.8423 31.9545 70.9773 32.0625C71.1122 32.1704 71.2472 32.2244 71.4361 32.3054C71.625 32.3594 71.841 32.3864 72.1109 32.3864C72.3808 32.3864 72.5967 32.3594 72.7856 32.3054C72.9746 32.2514 73.1365 32.1704 73.2445 32.0625C73.3794 31.9545 73.4604 31.8466 73.5414 31.7386C73.6223 31.6306 73.6763 31.4957 73.7033 31.3877C73.7303 31.2798 73.7573 31.1448 73.7573 31.0369C73.7573 30.9289 73.7843 30.8479 73.7843 30.7669V29.0935ZM66.7128 30.7669C66.7128 30.8479 66.7128 30.9289 66.7398 31.0369C66.7398 31.1448 66.7668 31.2528 66.8208 31.3877C66.8477 31.4957 66.9017 31.6306 66.9827 31.7386C67.0637 31.8466 67.1446 31.9545 67.2796 32.0625C67.4145 32.1704 67.5495 32.2244 67.7384 32.3054C67.9274 32.3594 68.1433 32.3864 68.4132 32.3864C68.6561 32.3864 68.845 32.3594 69.034 32.3054C69.1959 32.2514 69.3579 32.1974 69.4658 32.1165C69.5738 32.0355 69.6817 31.9545 69.7627 31.8466C69.8437 31.7386 69.8977 31.6306 69.9516 31.5227C70.0056 31.4147 70.0326 31.3068 70.0326 31.1988C70.0596 31.0908 70.0596 31.0099 70.0596 30.9019C70.0596 30.8479 70.0596 30.8209 70.0326 30.7669C70.0056 30.74 69.9786 30.713 69.9246 30.713L69.1689 30.551C69.1149 30.524 69.034 30.551 69.007 30.578C68.953 30.605 68.926 30.659 68.926 30.74C68.926 30.8479 68.899 30.9289 68.845 31.0099C68.818 31.0908 68.7641 31.1448 68.6831 31.1718C68.6021 31.1988 68.5211 31.2258 68.3862 31.2258C68.2512 31.2258 68.1703 31.1988 68.0893 31.1718C68.0083 31.1448 67.9543 31.0908 67.9274 31.0099C67.9004 30.9289 67.8734 30.8479 67.8734 30.74C67.8734 30.632 67.8464 30.524 67.8734 30.3891V29.4444V29.0935C67.8734 28.9856 67.9004 28.9046 67.9274 28.8236C67.9543 28.7427 68.0083 28.6887 68.0893 28.6617C68.1703 28.6347 68.2512 28.6077 68.3862 28.6077C68.4942 28.6077 68.6021 28.6347 68.6831 28.6617C68.7641 28.6887 68.818 28.7427 68.845 28.8236C68.872 28.9046 68.899 28.9856 68.899 29.0666C68.899 29.1475 68.926 29.2015 68.98 29.2285C69.034 29.2555 69.0879 29.2825 69.1689 29.2825L69.8977 29.1205C69.9516 29.1205 69.9786 29.0935 70.0056 29.0666C70.0326 29.0396 70.0326 28.9856 70.0326 28.9586C70.0326 28.8776 70.0056 28.7697 70.0056 28.6617L69.9246 28.3378C69.8707 28.2299 69.8167 28.1219 69.7357 28.0139C69.6547 27.906 69.5468 27.825 69.4388 27.744C69.3039 27.6631 69.1689 27.6091 69.007 27.5551C68.845 27.5011 68.6291 27.4741 68.3862 27.4741C68.1163 27.4741 67.9004 27.5011 67.7114 27.5551C67.5225 27.6091 67.3606 27.69 67.2526 27.798C67.1176 27.906 67.0367 28.0139 66.9557 28.1219C66.8747 28.2299 66.8208 28.3648 66.7938 28.4728C66.7668 28.5807 66.7398 28.7157 66.7128 28.8236C66.7128 28.9316 66.6858 29.0126 66.6858 29.0935V30.7669H66.7128ZM66.092 31.1178C66.227 31.1178 66.2809 31.1718 66.2809 31.3068V32.0625C66.2809 32.1165 66.254 32.1704 66.227 32.1974C66.2 32.2244 66.146 32.2514 66.065 32.2514H65.3093C65.2553 32.2514 65.2013 32.2244 65.1743 32.1974C65.1474 32.1704 65.1204 32.1165 65.1204 32.0625V31.3068C65.1204 31.2528 65.1474 31.1988 65.1743 31.1448C65.2013 31.1178 65.2553 31.0908 65.3093 31.0908L66.092 31.1178Z" fill="#CCCCCC"/>
<path d="M16.6728 13.7635C14.1627 13.5476 1.90904 15.5449 0.991367 13.3856C-0.547086 9.7959 12.3273 11.8202 14.0547 11.8742C14.9184 11.9012 15.998 12.0631 16.6188 11.9012C17.0507 11.7662 17.3476 11.0645 17.8334 10.7945C18.913 10.1468 20.6674 10.4977 22.1788 10.6326C23.2045 10.7136 24.2031 10.8215 25.2827 10.9025C23.7443 11.1184 22.0979 11.3344 20.4784 11.5503C20.2895 11.5773 19.9926 11.4963 19.8577 11.7122C21.5041 11.9821 23.3664 12.0361 25.1478 12.1711C23.3934 12.441 21.4231 12.4949 19.6957 12.8188C19.8037 13.0078 20.1276 12.9538 20.3165 12.9808C21.855 13.0887 23.5553 13.2237 25.1748 13.3047C23.5014 13.5746 21.5581 13.6285 19.8847 13.9524C19.9386 14.2223 20.2895 14.1414 20.4515 14.1414C21.9899 14.3303 23.7173 14.5462 25.3097 14.6812C23.5553 14.8161 21.3961 15.221 19.5878 15.3289C18.1843 15.4099 17.3476 14.6002 16.6728 13.7635Z" fill="#CCCCCC"/>
<path d="M12.3272 13.9795C14.2705 13.8176 15.9169 13.6826 16.6727 13.7366C17.0236 14.1684 17.3744 14.5733 17.8603 14.8702C18.3191 15.1671 18.8589 15.356 19.5606 15.302C20.5593 15.2481 21.6659 15.0861 22.7455 14.9512C23.5282 14.8432 24.284 14.7352 24.9857 14.6813C24.284 14.6273 23.5822 14.5463 22.8535 14.4653C22.0168 14.3844 21.2071 14.2764 20.4513 14.1684H20.3164C20.1274 14.1684 19.8845 14.1684 19.8575 13.9525V13.9255H19.8845C20.8022 13.7366 21.8278 13.6286 22.8535 13.5477C23.5552 13.4937 24.257 13.4127 24.9047 13.3317C23.6902 13.2508 22.4216 13.1698 21.2341 13.0888C20.9372 13.0618 20.6403 13.0348 20.3434 13.0348H20.2084C20.0195 13.0348 19.8036 13.0348 19.6956 12.8729L19.6686 12.8459H19.6956C20.6673 12.657 21.7199 12.549 22.7725 12.468C23.4743 12.4141 24.203 12.3331 24.8778 12.2521C24.5269 12.2251 24.149 12.1981 23.7981 12.1711C22.4486 12.0902 21.0721 12.0092 19.8575 11.8203H19.8036L19.8306 11.7933C19.9385 11.6313 20.1274 11.6313 20.2894 11.6313H20.4513L21.7469 11.4694C22.8265 11.3344 23.9331 11.1725 24.9587 11.0376C24.3379 10.9836 23.7172 10.9296 23.1234 10.8756C22.7995 10.8486 22.5026 10.8216 22.1517 10.7946L21.342 10.7137C20.0465 10.5787 18.697 10.4168 17.8333 10.9566C17.6173 11.0915 17.4284 11.3075 17.2665 11.5234C17.0505 11.7663 16.8616 12.0092 16.6187 12.0902C16.1868 12.1981 15.5391 12.1711 14.8913 12.1172C14.5944 12.0902 14.2975 12.0632 14.0276 12.0632C13.7307 12.0632 13.1099 11.9822 12.3002 11.9012C9.38526 11.4424 3.90621 10.8756 1.77397 11.7933C1.01824 12.1172 0.694354 12.603 1.01824 13.3857C1.63902 14.8702 7.79283 14.3574 12.3272 13.9795ZM16.6727 13.7906C15.9169 13.7366 14.2705 13.8715 12.3272 14.0335C7.79283 14.4114 1.61203 14.9242 0.964258 13.3857C0.613382 12.576 0.964258 12.0632 1.74698 11.7123C3.90621 10.7946 9.38527 11.3614 12.3272 11.6583C13.1369 11.7393 13.7577 11.8203 14.0546 11.8203C14.3245 11.8203 14.6214 11.8473 14.9183 11.8743C15.5661 11.9282 16.1868 11.9552 16.6187 11.8473C16.8346 11.7933 17.0236 11.5504 17.2395 11.3075C17.4284 11.0915 17.5903 10.8756 17.8333 10.7407C18.7239 10.2008 20.0735 10.3628 21.396 10.4977L22.2057 10.5787C22.5026 10.6057 22.8535 10.6327 23.1774 10.6597C23.8791 10.7137 24.5809 10.7946 25.3096 10.8216L25.6065 10.8486L25.3366 10.9026C24.23 11.0645 23.0424 11.2265 21.8548 11.3884L20.5593 11.5504H20.3974C20.2624 11.5504 20.1005 11.5504 19.9925 11.6583C21.2071 11.8473 22.5566 11.9282 23.9061 12.0092C24.3649 12.0362 24.7968 12.0632 25.2556 12.0902L25.5255 12.1172L25.2556 12.1442C24.4999 12.2521 23.6902 12.3331 22.8805 12.4141C21.8548 12.522 20.8022 12.603 19.8575 12.7919C19.9385 12.8999 20.1274 12.8999 20.2894 12.8999H20.4243C20.7212 12.9269 21.0181 12.9539 21.315 12.9539C22.6106 13.0618 23.9601 13.1428 25.2556 13.2238L25.5255 13.2508L25.2556 13.3047C24.4999 13.4127 23.7172 13.4937 22.9345 13.5747C21.9358 13.6826 20.9372 13.7636 20.0195 13.9525C20.0735 14.1145 20.2624 14.0875 20.4243 14.0875H20.5593C21.342 14.1684 22.1517 14.2764 22.9614 14.3844C23.7712 14.4653 24.6079 14.5733 25.3906 14.6273V14.6813C24.6079 14.7352 23.7172 14.8702 22.8265 14.9782C21.7469 15.1131 20.6403 15.275 19.6416 15.329C18.9399 15.383 18.3731 15.1941 17.9142 14.8972C17.3744 14.6273 16.9966 14.2224 16.6727 13.7906Z" fill="#CCCCCC"/>
</g>
<defs>
<clipPath id="clip0_4015_15159">
<rect width="82.6446" height="32" fill="white" transform="translate(0.883301 0.34082)"/>
</clipPath>
</defs>
</svg>
