<svg width="32" height="33" viewBox="0 0 32 33" fill="none" xmlns="http://www.w3.org/2000/svg">
<path d="M16.0027 28.3954C12.7227 28.3954 12.336 28.3781 11.056 28.3221C10.0578 28.2893 9.07259 28.0864 8.14269 27.7221C7.34693 27.4124 6.62426 26.9406 6.02058 26.3367C5.4169 25.7328 4.9454 25.01 4.63602 24.2141C4.28576 23.2808 4.09684 22.2947 4.07735 21.2981C4.00269 20.0207 4.00269 19.6021 4.00269 16.3474C4.00269 13.0581 4.02002 12.6741 4.07735 11.4007C4.09727 10.4054 4.28618 9.42076 4.63602 8.48875C4.94504 7.69186 5.41686 6.96818 6.02134 6.36393C6.62583 5.75968 7.34968 5.28813 8.14669 4.97941C9.07821 4.62768 10.0631 4.43827 11.0587 4.41941C12.332 4.34741 12.7507 4.34741 16.0027 4.34741C19.3094 4.34741 19.6894 4.36475 20.9494 4.41941C21.9467 4.43808 22.936 4.62741 23.8694 4.97941C24.6661 5.28849 25.3898 5.76016 25.9943 6.36437C26.5987 6.96857 27.0706 7.69207 27.38 8.48875C27.736 9.43541 27.9267 10.4354 27.9414 11.4447C28.016 12.7221 28.016 13.1394 28.016 16.3927C28.016 19.6461 27.9974 20.0727 27.9414 21.3354C27.9214 22.333 27.7321 23.32 27.3814 24.2541C27.0712 25.0505 26.5988 25.7738 25.9942 26.3779C25.3896 26.982 24.666 27.4538 23.8694 27.7634C22.936 28.1127 21.9507 28.3021 20.9547 28.3221C19.6814 28.3954 19.264 28.3954 16.0027 28.3954ZM15.9574 6.45808C12.696 6.45808 12.3574 6.47408 11.084 6.53141C10.3236 6.54135 9.57042 6.68161 8.85735 6.94608C8.33726 7.14543 7.86471 7.45156 7.47017 7.84472C7.07563 8.23788 6.76786 8.70935 6.56669 9.22874C6.30002 9.94874 6.16002 10.7101 6.15202 11.4781C6.08135 12.7701 6.08135 13.1087 6.08135 16.3474C6.08135 19.5474 6.09335 19.9354 6.15202 21.2194C6.16402 21.9794 6.30402 22.7327 6.56669 23.4461C6.97469 24.4954 7.80669 25.3247 8.85869 25.7274C9.57083 25.9935 10.3238 26.1338 11.084 26.1421C12.3747 26.2167 12.7147 26.2167 15.9574 26.2167C19.228 26.2167 19.5667 26.2007 20.8294 26.1421C21.5899 26.1329 22.3432 25.9926 23.056 25.7274C23.5733 25.5265 24.0432 25.2202 24.4357 24.8279C24.8282 24.4356 25.1348 23.9659 25.336 23.4487C25.6027 22.7287 25.7427 21.9661 25.7507 21.1981H25.7654C25.8227 19.9234 25.8227 19.5834 25.8227 16.3261C25.8227 13.0687 25.808 12.7261 25.7507 11.4527C25.7386 10.6934 25.5984 9.94145 25.336 9.22874C25.1353 8.71081 24.8289 8.24035 24.4364 7.84734C24.0438 7.45434 23.5737 7.1474 23.056 6.94608C22.3427 6.67941 21.5894 6.54075 20.8294 6.53141C19.54 6.45808 19.2027 6.45808 15.9574 6.45808ZM16.0027 22.5061C14.7834 22.5069 13.5914 22.1461 12.5772 21.4693C11.563 20.7925 10.7724 19.8302 10.3052 18.704C9.83798 17.5778 9.71526 16.3384 9.95254 15.1425C10.1898 13.9466 10.7764 12.8479 11.6382 11.9854C12.5 11.1229 13.5981 10.5353 14.7939 10.297C15.9896 10.0587 17.2291 10.1803 18.3557 10.6465C19.4823 11.1127 20.4453 11.9026 21.1229 12.9162C21.8006 13.9297 22.1624 15.1215 22.1627 16.3407C22.1606 17.9743 21.5111 19.5405 20.3565 20.6961C19.2018 21.8517 17.6363 22.5026 16.0027 22.5061ZM16.0027 12.3381C15.2116 12.3381 14.4382 12.5727 13.7804 13.0122C13.1226 13.4517 12.6099 14.0764 12.3072 14.8073C12.0044 15.5382 11.9252 16.3425 12.0795 17.1184C12.2339 17.8944 12.6148 18.6071 13.1743 19.1665C13.7337 19.7259 14.4464 20.1069 15.2223 20.2612C15.9982 20.4156 16.8025 20.3363 17.5334 20.0336C18.2643 19.7308 18.889 19.2182 19.3286 18.5604C19.7681 17.9026 20.0027 17.1292 20.0027 16.3381C20.0002 15.278 19.578 14.262 18.8284 13.5124C18.0788 12.7628 17.0628 12.3405 16.0027 12.3381ZM22.4027 11.3874C22.2139 11.3867 22.0272 11.3488 21.8531 11.276C21.6789 11.2031 21.5209 11.0966 21.3879 10.9627C21.1193 10.6921 20.9693 10.3259 20.9707 9.94475C20.9721 9.56354 21.1249 9.19851 21.3954 8.92996C21.666 8.66141 22.0321 8.51133 22.4134 8.51275C22.7946 8.51416 23.1596 8.66695 23.4281 8.9375C23.6967 9.20805 23.8468 9.57421 23.8454 9.95541C23.8439 10.3366 23.6912 10.7016 23.4206 10.9702C23.15 11.2387 22.7839 11.3888 22.4027 11.3874Z" fill="white"/>
</svg>
