<svg width="34" height="35" viewBox="0 0 34 35" fill="none" xmlns="http://www.w3.org/2000/svg">
<path d="M17 13.1248C16.1662 13.1248 15.351 13.3721 14.6577 13.8353C13.9644 14.2986 13.424 14.9571 13.1049 15.7274C12.7858 16.4978 12.7023 17.3455 12.865 18.1633C13.0277 18.9811 13.4292 19.7324 14.0188 20.322C14.6085 20.9116 15.3597 21.3131 16.1775 21.4758C16.9953 21.6385 17.843 21.555 18.6134 21.2359C19.3838 20.9168 20.0422 20.3764 20.5055 19.6831C20.9687 18.9898 21.216 18.1747 21.216 17.3408C21.216 16.7872 21.107 16.2389 20.8951 15.7274C20.6832 15.2159 20.3727 14.7512 19.9812 14.3597C19.5897 13.9682 19.1249 13.6576 18.6134 13.4457C18.1019 13.2339 17.5537 13.1248 17 13.1248ZM33.881 8.95982C33.8721 7.64701 33.6303 6.34619 33.167 5.11782C32.8258 4.21896 32.2978 3.40268 31.618 2.72284C30.9381 2.04299 30.1219 1.51504 29.223 1.17382C27.9946 0.710509 26.6938 0.468764 25.381 0.45982C23.188 0.34082 22.542 0.34082 17 0.34082C11.458 0.34082 10.812 0.34082 8.619 0.45982C7.30619 0.468764 6.00537 0.710509 4.777 1.17382C3.87814 1.51504 3.06186 2.04299 2.38201 2.72284C1.70217 3.40268 1.17422 4.21896 0.833 5.11782C0.369688 6.34619 0.127944 7.64701 0.119 8.95982C-1.13994e-07 11.1528 0 11.7988 0 17.3408C0 22.8828 -1.13994e-07 23.5288 0.119 25.7218C0.137299 27.0393 0.378716 28.3441 0.833 29.5808C1.17271 30.4756 1.70022 31.2871 2.38 31.9608C3.05693 32.6447 3.87496 33.1727 4.777 33.5078C6.00537 33.9711 7.30619 34.2129 8.619 34.2218C10.812 34.3408 11.458 34.3408 17 34.3408C22.542 34.3408 23.188 34.3408 25.381 34.2218C26.6938 34.2129 27.9946 33.9711 29.223 33.5078C30.125 33.1727 30.9431 32.6447 31.62 31.9608C32.2998 31.2871 32.8273 30.4756 33.167 29.5808C33.6299 28.3464 33.8716 27.0401 33.881 25.7218C34 23.5288 34 22.8828 34 17.3408C34 11.7988 34 11.1528 33.881 8.95982ZM29.563 22.5598C29.5084 23.6089 29.2846 24.6422 28.9 25.6198C28.57 26.4353 28.0794 27.1761 27.4573 27.7981C26.8352 28.4202 26.0945 28.9108 25.279 29.2408C24.2922 29.6039 23.2531 29.8049 22.202 29.8358C20.859 29.8358 20.502 29.8358 17 29.8358C13.498 29.8358 13.141 29.8358 11.798 29.8358C10.7469 29.8049 9.70783 29.6039 8.721 29.2408C7.87798 28.9275 7.11667 28.4278 6.494 27.7788C5.87803 27.1689 5.40234 26.4322 5.1 25.6198C4.73545 24.634 4.54003 23.5937 4.522 22.5428C4.522 21.1998 4.522 20.8428 4.522 17.3408C4.522 13.8388 4.522 13.4818 4.522 12.1388C4.54003 11.0879 4.73545 10.0476 5.1 9.06182C5.41328 8.2188 5.91307 7.45749 6.562 6.83482C7.17457 6.22218 7.91055 5.74698 8.721 5.44082C9.70783 5.07771 10.7469 4.87678 11.798 4.84582C13.141 4.84582 13.498 4.84582 17 4.84582C20.502 4.84582 20.859 4.84582 22.202 4.84582C23.2531 4.87678 24.2922 5.07771 25.279 5.44082C26.122 5.7541 26.8833 6.25389 27.506 6.90282C28.122 7.51269 28.5977 8.24945 28.9 9.06182C29.2631 10.0487 29.464 11.0878 29.495 12.1388C29.495 13.4818 29.495 13.8388 29.495 17.3408C29.495 20.8428 29.614 21.1998 29.563 22.5428V22.5598ZM26.843 9.91182C26.6406 9.36269 26.3215 8.86401 25.9076 8.45018C25.4938 8.03635 24.9951 7.71723 24.446 7.51482C23.692 7.25346 22.8979 7.12686 22.1 7.14082C20.774 7.14082 20.4 7.14082 17 7.14082C13.6 7.14082 13.226 7.14082 11.9 7.14082C11.0981 7.14866 10.3038 7.2983 9.554 7.58282C9.01328 7.77604 8.51988 8.08213 8.10659 8.48076C7.69331 8.87939 7.3696 9.36143 7.157 9.89482C6.91012 10.6519 6.78951 11.4445 6.8 12.2408C6.8 13.5668 6.8 13.9408 6.8 17.3408C6.8 20.7408 6.8 21.1148 6.8 22.4408C6.81685 23.2419 6.96621 24.0346 7.242 24.7868C7.44441 25.3359 7.76353 25.8346 8.17736 26.2485C8.59119 26.6623 9.08987 26.9814 9.639 27.1838C10.3643 27.4506 11.1276 27.5998 11.9 27.6258C13.226 27.6258 13.6 27.6258 17 27.6258C20.4 27.6258 20.774 27.6258 22.1 27.6258C22.9019 27.618 23.6962 27.4683 24.446 27.1838C24.9951 26.9814 25.4938 26.6623 25.9076 26.2485C26.3215 25.8346 26.6406 25.3359 26.843 24.7868C27.1275 24.037 27.2772 23.2428 27.285 22.4408C27.285 21.1148 27.285 20.7408 27.285 17.3408C27.285 13.9408 27.285 13.5668 27.285 12.2408C27.2855 11.4381 27.1356 10.6423 26.843 9.89482V9.91182ZM17 23.8348C16.148 23.8348 15.3044 23.6667 14.5174 23.3402C13.7305 23.0136 13.0157 22.535 12.414 21.9317C11.8124 21.3285 11.3356 20.6125 11.0111 19.8247C10.6866 19.0369 10.5208 18.1928 10.523 17.3408C10.523 16.0557 10.9043 14.7995 11.6186 13.7312C12.333 12.6629 13.3482 11.8305 14.5358 11.3395C15.7234 10.8485 17.03 10.7209 18.2902 10.9729C19.5504 11.2248 20.7074 11.845 21.615 12.7549C22.5225 13.6648 23.1396 14.8235 23.3883 16.0844C23.6369 17.3452 23.5059 18.6514 23.0118 19.8378C22.5177 21.0241 21.6827 22.0371 20.6125 22.7487C19.5423 23.4602 18.2851 23.8382 17 23.8348ZM23.8 12.1218C23.4242 12.082 23.0764 11.9046 22.8237 11.6237C22.5709 11.3427 22.4311 10.9782 22.4311 10.6003C22.4311 10.2224 22.5709 9.8579 22.8237 9.57697C23.0764 9.29605 23.4242 9.1186 23.8 9.07882C24.1758 9.1186 24.5236 9.29605 24.7763 9.57697C25.0291 9.8579 25.1689 10.2224 25.1689 10.6003C25.1689 10.9782 25.0291 11.3427 24.7763 11.6237C24.5236 11.9046 24.1758 12.082 23.8 12.1218Z" fill="black"/>
</svg>
