<svg width="45" height="33" viewBox="0 0 45 33" fill="none" xmlns="http://www.w3.org/2000/svg">
<rect x="0.5" y="0.84082" width="44" height="30.7647" rx="4.79412" fill="#1A1A1A" stroke="#333333"/>
<path fill-rule="evenodd" clip-rule="evenodd" d="M12.5076 11.3832C12.1299 11.8489 11.5255 12.2163 10.9212 12.1638C10.8456 11.5341 11.1415 10.865 11.4877 10.4517C11.8655 9.97282 12.5265 9.63171 13.0615 9.60547C13.1245 10.2614 12.879 10.9043 12.5076 11.3832ZM13.0545 12.2884C12.522 12.2565 12.0362 12.4553 11.6438 12.6158C11.3913 12.7191 11.1775 12.8066 11.0148 12.8066C10.8322 12.8066 10.6096 12.7145 10.3596 12.611C10.032 12.4754 9.65749 12.3203 9.26475 12.3278C8.36453 12.3409 7.52727 12.8722 7.06773 13.7184C6.12345 15.4109 6.82221 17.9167 7.73502 19.2943C8.18197 19.9765 8.71707 20.7243 9.42213 20.6981C9.73231 20.6859 9.95544 20.5872 10.1864 20.4851C10.4522 20.3676 10.7284 20.2455 11.1596 20.2455C11.5759 20.2455 11.84 20.3644 12.0935 20.4786C12.3345 20.5871 12.566 20.6914 12.9097 20.685C13.6399 20.6718 14.0995 20.0027 14.5464 19.3205C15.0288 18.5883 15.2407 17.8737 15.2729 17.7653L15.2767 17.7527C15.2759 17.7519 15.2699 17.7491 15.2594 17.7441C15.0982 17.6672 13.8658 17.0792 13.8539 15.5027C13.8421 14.1795 14.8315 13.509 14.9872 13.4035C14.9967 13.397 15.0031 13.3927 15.006 13.3905C14.3764 12.4196 13.3944 12.3147 13.0545 12.2884ZM18.1086 20.6128V10.3861H21.7913C23.6924 10.3861 25.0207 11.7505 25.0207 13.7447C25.0207 15.7389 23.6672 17.1164 21.7409 17.1164H19.632V20.6128H18.1086ZM19.6337 11.7243H21.3901C22.7121 11.7243 23.4675 12.459 23.4675 13.7513C23.4675 15.0436 22.7121 15.7848 21.3838 15.7848H19.6337V11.7243ZM30.0505 19.3861C29.6476 20.1864 28.76 20.6915 27.8031 20.6915C26.3867 20.6915 25.3983 19.8125 25.3983 18.4874C25.3983 17.1755 26.3552 16.4211 28.1241 16.3096L30.0253 16.1915V15.6274C30.0253 14.7943 29.5028 14.3416 28.5711 14.3416C27.8031 14.3416 27.2428 14.7549 27.1295 15.3847H25.7571C25.8012 14.0596 26.9973 13.0953 28.6152 13.0953C30.3589 13.0953 31.4921 14.0465 31.4921 15.5224V20.6128H30.0819V19.3861H30.0505ZM28.213 19.478C27.4009 19.478 26.8847 19.0713 26.8847 18.4481C26.8847 17.8052 27.382 17.4313 28.3326 17.3723L30.026 17.2608V17.838C30.026 18.7958 29.2454 19.478 28.213 19.478ZM36.1713 21.013C35.5607 22.8038 34.8619 23.3942 33.3763 23.3942C33.263 23.3942 32.8853 23.3811 32.7971 23.3548V22.1281C32.8916 22.1413 33.1245 22.1544 33.2441 22.1544C33.9177 22.1544 34.2954 21.8592 34.5283 21.0917L34.6668 20.6391L32.0858 13.1937H33.6784L35.4726 19.2353H35.5041L37.2982 13.1937H38.8468L36.1713 21.013Z" fill="white"/>
</svg>
