<svg width="45" height="33" viewBox="0 0 45 33" fill="none" xmlns="http://www.w3.org/2000/svg">
<rect x="0.5" y="0.84082" width="44" height="30.7647" rx="4.79412" fill="#1A1A1A" stroke="#333333"/>
<path d="M18.5293 31.0173L43.6764 23.407V28.0173C43.6764 29.6741 42.3332 31.0173 40.6764 31.0173H18.5293Z" fill="#FD6020"/>
<path fill-rule="evenodd" clip-rule="evenodd" d="M38.9044 12.3994C40.2878 12.3994 41.0488 13.0394 41.0488 14.2482C41.1179 15.1726 40.4954 15.9548 39.6653 16.0971L41.533 18.7281H40.0803L38.4893 16.1682H38.351V18.7281H37.175V12.3994H38.9044ZM38.3506 15.3149H38.6964C39.4574 15.3149 39.8032 14.9593 39.8032 14.3194C39.8032 13.7505 39.4574 13.3949 38.6964 13.3949H38.3506V15.3149ZM33.0933 18.7281H36.4136V17.6615H34.2692V15.9548H36.3444V14.8882H34.2692V13.466H36.4136V12.3994H33.0933V18.7281ZM29.6349 16.6659L28.0439 12.3994H26.7988L29.3582 18.8703H29.9808L32.5402 12.3994H31.2951L29.6349 16.6659ZM15.5927 15.5993C15.5927 17.377 16.9762 18.8703 18.7055 18.8703C19.2589 18.8703 19.7431 18.7281 20.2274 18.5148V17.0926C19.8815 17.5193 19.3973 17.8037 18.8439 17.8037C17.7371 17.8037 16.8378 16.9504 16.8378 15.8126V15.6704C16.7687 14.5327 17.6679 13.5371 18.7747 13.466C19.3281 13.466 19.8815 13.7505 20.2274 14.1771V12.7549C19.8123 12.4705 19.2589 12.3994 18.7747 12.3994C16.9762 12.2572 15.5927 13.7505 15.5927 15.5993ZM13.4467 14.8171C12.7549 14.5327 12.5474 14.3905 12.5474 14.0349C12.6166 13.6083 12.9625 13.2527 13.3775 13.3238C13.7234 13.3238 14.0692 13.5371 14.3459 13.8216L14.9685 12.9683C14.4843 12.5416 13.8617 12.2572 13.2392 12.2572C12.2707 12.1861 11.4406 12.9683 11.3715 13.9638V14.0349C11.3715 14.8882 11.7173 15.386 12.8241 15.7415C13.1008 15.8126 13.3775 15.9549 13.6542 16.0971C13.8617 16.2393 14.0001 16.4526 14.0001 16.7371C14.0001 17.2348 13.585 17.6615 13.17 17.6615H13.1008C12.5474 17.6615 12.0632 17.3059 11.8557 16.8082L11.0948 17.5904C11.5098 18.3726 12.3399 18.7992 13.17 18.7992C14.2768 18.8703 15.176 18.017 15.2452 16.8793V16.6659C15.176 15.8126 14.8302 15.386 13.4467 14.8171ZM9.43519 18.7281H10.6111V12.3994H9.43519V18.7281ZM3.97046 12.3994H5.69981H6.04568C7.70585 12.4705 9.02015 13.8927 8.95098 15.5993C8.95098 16.5237 8.53594 17.377 7.8442 18.017C7.22163 18.5148 6.46072 18.7992 5.69981 18.7281H3.97046V12.3994ZM5.4924 17.6614C6.04579 17.7325 6.66835 17.5192 7.0834 17.1637C7.49844 16.737 7.70596 16.1681 7.70596 15.5282C7.70596 14.9593 7.49844 14.3904 7.0834 13.9638C6.66835 13.6082 6.04579 13.3949 5.4924 13.466H5.14653V17.6614H5.4924Z" fill="white"/>
<path fill-rule="evenodd" clip-rule="evenodd" d="M23.7534 12.2527C22.0241 12.2527 20.5714 13.6749 20.5714 15.5237C20.5714 17.3014 21.9549 18.7947 23.7534 18.8658C25.5519 18.937 26.9354 17.4437 27.0046 15.5948C26.9354 13.746 25.5519 12.2527 23.7534 12.2527V12.2527Z" fill="#FD6020"/>
</svg>
