<svg width="82" height="33" viewBox="0 0 82 33" fill="none" xmlns="http://www.w3.org/2000/svg">
<path fill-rule="evenodd" clip-rule="evenodd" d="M8.00036 9.04437C8.61529 8.51722 9.40674 8.2534 10.1099 8.2534C11.429 8.2534 12.7476 8.86881 14.0662 9.9236L14.6816 10.4512L16.4396 7.98959L15.9998 7.54973C14.3296 6.14335 12.5716 5.43968 10.5493 5.43968C9.05467 5.43968 7.64828 5.96731 6.2419 6.84654C4.83552 7.81355 3.95629 9.04389 3.69247 10.5385C3.34088 12.121 3.69247 13.5273 4.83552 14.5821C5.53871 15.2858 6.68176 15.9012 8.35196 16.6039C9.58278 17.1316 10.3738 17.5709 10.7253 17.923C11.1652 18.4506 11.3408 19.1529 11.1652 20.0326C10.9892 20.9113 10.5498 21.615 9.75834 22.0544C9.05515 22.582 8.2637 22.758 7.47273 22.758C5.62649 22.758 4.04455 21.9666 2.63721 20.2081L2.19783 19.5937L0 21.9666L0.439854 22.406C1.14305 23.2857 2.10957 23.9893 3.3404 24.6038C4.65948 25.2192 5.88983 25.5718 7.12065 25.5718C8.70307 25.5718 10.1095 25.1314 11.4281 24.1644C12.9222 23.1974 13.8897 21.8783 14.1535 20.2081C14.5929 18.4506 14.1535 17.0433 13.0105 15.9012C12.3951 15.2858 11.1642 14.5821 9.40578 13.8789H9.318C7.29621 12.9997 6.41698 12.0327 6.59254 10.9779C6.76954 10.1869 7.20939 9.48375 8.00036 9.04437ZM26.198 0.34082H23.2092L21.9783 5.87905H17.9347L17.3193 8.60452H21.3634L19.1656 19.066C18.6379 21.439 18.814 23.1974 19.781 24.2522C20.3964 25.131 21.5394 25.5713 23.0341 25.5713C25.7591 25.5713 28.1329 24.0762 30.2425 21.0874L30.8579 20.2077L27.8691 19.5049L27.6053 19.9443C26.2862 21.7901 24.8803 22.7576 23.3857 22.7576C22.7703 22.7576 22.3304 22.6693 22.0666 22.3182C21.8028 21.9661 21.715 21.2624 21.9783 20.2954L24.44 8.60356H30.9457L31.5611 5.87809H24.9671L26.198 0.34082ZM46.5934 7.37417C45.5386 6.05509 44.1313 5.43968 42.286 5.43968C39.6483 5.43968 37.3627 6.58224 35.5164 8.69278C33.934 10.539 32.8792 12.8246 32.3516 15.4618C31.4724 18.9783 31.9117 21.6155 33.4064 23.549C34.549 24.8681 36.1319 25.5718 38.2414 25.5718C40.0877 25.5718 42.4606 25.0432 45.186 23.9016L45.8015 23.6373L45.0978 20.6489L44.3073 21.0883C42.1977 22.2314 40.2632 22.7585 38.593 22.7585C37.3622 22.7585 36.4834 22.4064 35.9558 21.7906C35.0766 20.8235 34.8128 19.066 35.1644 16.5161H47.3839L47.5599 15.9012C48.3509 12.0332 47.9993 9.13215 46.5934 7.37417ZM41.8452 8.25292C42.8131 8.25292 43.6036 8.60452 44.219 9.39597C45.0105 10.4512 45.2738 11.8576 44.9227 13.7034H35.7798C36.2196 12.2087 37.0106 10.9779 38.0659 9.92312C39.2967 8.86833 40.527 8.25292 41.8452 8.25292ZM59.2518 5.43968C57.4943 5.43968 55.9109 6.05509 54.5928 7.28591V5.35238L51.6035 5.79175V6.49542C51.7795 8.2534 51.6035 10.3635 51.0759 12.6491L46.8562 32.3408H49.9338L51.603 24.6043C52.6974 25.2414 53.9418 25.5756 55.2082 25.5722C57.054 25.5722 58.9002 24.7808 60.5709 23.3744C62.7687 21.5277 64.1751 19.067 64.8783 15.8139C65.6688 12.2097 65.3177 9.48471 63.7352 7.55021C62.5927 6.14335 61.0985 5.43968 59.2518 5.43968ZM54.329 11.4178C55.8241 9.30819 57.3182 8.25292 58.9007 8.25292C59.8677 8.25292 60.6591 8.69278 61.2736 9.39597C62.3284 10.6268 62.4166 12.6486 61.889 15.3736C61.2736 18.4506 60.0432 20.5602 58.1087 21.7906C57.1417 22.406 56.0869 22.7585 55.0322 22.7585C54.0652 22.7585 53.0986 22.3191 52.2189 21.4394L54.329 11.4178ZM74.5488 13.8794C72.4393 13.0002 71.4713 12.0332 71.7356 10.9784C71.9116 10.1874 72.351 9.48423 73.0537 9.04437C73.7574 8.51722 74.4611 8.2534 75.2515 8.2534C76.5706 8.2534 77.8888 8.86881 79.2078 9.9236L79.8232 10.4512L81.5817 7.98959L81.1423 7.54973C79.4721 6.14335 77.6254 5.43968 75.6919 5.43968C74.1968 5.43968 72.7904 5.96731 71.3835 6.84654C69.9771 7.81355 69.0984 9.04389 68.8346 10.5385C68.4835 12.121 68.8346 13.5273 70.0654 14.5821C70.6808 15.1975 71.8239 15.9012 73.4941 16.6039L75.867 17.923C76.3063 18.4506 76.4824 19.1529 76.3063 20.0326C76.1313 20.9113 75.6036 21.615 74.9 22.0544C74.1963 22.582 73.4058 22.758 72.6139 22.758C70.7681 22.758 69.1862 21.9666 67.8671 20.2081L67.3394 19.5937L65.2299 21.9666L65.581 22.406C66.2847 23.2857 67.2512 23.9893 68.4825 24.6038C69.7133 25.2192 71.0314 25.5718 72.2627 25.5718C73.8452 25.5718 75.2511 25.1314 76.5702 24.1644C78.0643 23.1974 79.0313 21.8783 79.2956 20.2081C79.735 18.4506 79.2956 17.0433 78.2408 15.9012C77.5372 15.2863 76.3063 14.5826 74.5488 13.8794Z" fill="red"/>
</svg>
