<svg width="67" height="33" viewBox="0 0 67 33" fill="none" xmlns="http://www.w3.org/2000/svg">
<path fill-rule="evenodd" clip-rule="evenodd" d="M1.50477 4.77119H5.71068C5.33393 4.51434 4.62467 4.18726 3.45718 4.18726C2.61212 4.18726 1.97929 4.42316 1.50477 4.77119ZM6.41683 4.77119H10.816C10.2976 4.42316 9.57204 4.18726 8.55859 4.18726C7.48849 4.18726 6.79591 4.51434 6.41683 4.77119ZM0.911133 5.35513H11.4445C11.2677 5.12804 11.0554 4.93088 10.816 4.77119H6.41683C6.17201 4.93687 6.05793 5.07306 6.05793 5.07306C6.05793 5.07306 5.95318 4.93687 5.71068 4.77119H1.50477C1.28042 4.93695 1.08057 5.13354 0.911133 5.35513Z" fill="#CCCCCC"/>
<path fill-rule="evenodd" clip-rule="evenodd" d="M0.559082 5.91947H11.7866C11.6947 5.71902 11.58 5.52985 11.4448 5.35571H0.910997C0.771317 5.5373 0.655306 5.72858 0.559082 5.91947Z" fill="#CCCCCC"/>
<path fill-rule="evenodd" clip-rule="evenodd" d="M0.318743 6.50289H11.9909C11.9407 6.30235 11.8721 6.10688 11.786 5.91895H0.558914C0.458811 6.1176 0.380435 6.31587 0.318743 6.50289ZM0.16626 7.08721H2.85276C3.02581 6.88623 3.31099 6.70464 3.77698 6.70464C4.24335 6.70464 4.50874 6.88661 4.65928 7.08721H7.63679C7.81255 6.88623 8.10277 6.70464 8.57768 6.70464C9.02621 6.70464 9.29354 6.88661 9.45262 7.08721H12.0895C12.0716 6.89031 12.0385 6.69508 11.9905 6.50327H0.318743C0.255978 6.6946 0.205053 6.88962 0.16626 7.08721Z" fill="#CCCCCC"/>
<path fill-rule="evenodd" clip-rule="evenodd" d="M0.0961348 7.65117H2.59679V7.61081C2.59679 7.61081 2.63947 7.33495 2.85287 7.0874H0.166362C0.105059 7.40207 0.0961348 7.61081 0.0961348 7.61081V7.65117ZM4.85765 7.65117H7.37848V7.61081C7.37848 7.61081 7.42155 7.33495 7.63766 7.0874H4.66016C4.77271 7.24051 4.84115 7.42154 4.85804 7.61081V7.65117H4.85765ZM9.67854 7.65117H12.0993V7.61081C12.0993 7.61081 12.1187 7.40168 12.0899 7.0874H9.45311C9.64789 7.33495 9.67854 7.61081 9.67854 7.61081V7.65117ZM0.0949707 8.2351H2.59679V7.65117H0.0961348L0.0949707 8.2351ZM4.85765 8.2351H7.37848V7.65117H4.85765V8.2351ZM9.67854 8.2351H12.0993V7.65117H9.67854V8.2351Z" fill="#CCCCCC"/>
<path fill-rule="evenodd" clip-rule="evenodd" d="M0.093837 8.81978H2.5972V8.23584H0.0953893L0.093837 8.81978ZM4.85768 8.81978H7.37851V8.23584H4.85768V8.81978ZM9.67857 8.81978H12.0993V8.23584H9.67857V8.81978ZM0.0922852 9.38354H2.59682V8.81978H0.0934493L0.0922852 9.38354ZM4.85768 9.38354H7.37851V8.81978H4.85768V9.38354ZM9.67857 9.38354H12.0993V8.81978H9.67857V9.38354Z" fill="#CCCCCC"/>
<path fill-rule="evenodd" clip-rule="evenodd" d="M0.0914961 9.96699H2.59719V9.38306H0.0922721L0.0914961 9.96699ZM4.85767 9.96699H7.3785V9.38306H4.85767V9.96699ZM9.67855 9.96699H12.0993V9.38306H9.67855V9.96699ZM0.090332 10.5308H2.59719V9.96699H0.0914961L0.090332 10.5308ZM4.85767 10.5308H7.3785V9.96699H4.85767V10.5308ZM9.67855 10.5308H12.0993V9.96699H9.67855V10.5308Z" fill="#CCCCCC"/>
<path fill-rule="evenodd" clip-rule="evenodd" d="M0.0888106 11.1151H2.59683V10.5308H0.0899747L0.0888106 11.1151ZM4.8577 11.1151H7.37853V10.5308H4.8577V11.1151ZM9.67858 11.1151H12.0993V10.5308H9.67858V11.1151ZM0.0876465 11.699H2.59722V11.1151H0.0891984L0.0876465 11.699ZM4.8577 11.699H7.37853V11.1151H4.8577V11.699ZM9.67858 11.699H12.0993V11.1151H9.67858V11.699Z" fill="#CCCCCC"/>
<path fill-rule="evenodd" clip-rule="evenodd" d="M0.0864258 12.2627H2.59717V11.699H0.0875899L0.0864258 12.2627ZM4.85765 12.2627H7.37847V11.699H4.85765V12.2627ZM9.67853 12.2627H12.0992V11.699H9.67853V12.2627Z" fill="#CCCCCC"/>
<path fill-rule="evenodd" clip-rule="evenodd" d="M0.0854492 12.847H2.59735V12.2627H0.0866129L0.0854492 12.847ZM4.85783 12.847H7.37866V12.2627H4.85783V12.847ZM9.67871 12.847H12.0994V12.2627H9.67871V12.847Z" fill="#CCCCCC"/>
<path fill-rule="evenodd" clip-rule="evenodd" d="M0.0837402 13.4306H2.5972V12.8467H0.0852925L0.0837402 13.4306ZM4.85768 13.4306H7.3785V12.8467H4.85768V13.4306ZM9.67856 13.4306H12.0993V12.8467H9.67856V13.4306Z" fill="#CCCCCC"/>
<path fill-rule="evenodd" clip-rule="evenodd" d="M0.0831819 13.9944H2.59741V13.4307H0.0839578L0.0831819 13.9944ZM4.85789 13.9944H7.37872V13.4307H4.85789V13.9944ZM9.67878 13.9944H12.0995V13.4307H9.67878V13.9944ZM0.08163 14.5784H2.59703V13.9944H0.0827941L0.08163 14.5784ZM4.85789 14.5784H7.37872V13.9944H4.85789V14.5784ZM9.67878 14.5784H12.0995V13.9944H9.67878V14.5784ZM0.0800781 15.1627H2.59703V14.5788H0.08163L0.0800781 15.1627ZM4.85789 15.1627H7.37872V14.5788H4.85789V15.1627ZM9.67878 15.1627H12.0995V14.5788H9.67878V15.1627Z" fill="#CCCCCC"/>
<path fill-rule="evenodd" clip-rule="evenodd" d="M0.0788008 15.7264H2.59691V15.1626H0.0799649L0.0788008 15.7264ZM4.85778 15.7264H7.37861V15.1626H4.85778V15.7264ZM9.67866 15.7264H12.0994V15.1626H9.67866V15.7264ZM0.0776367 16.3103H2.59691V15.7264H0.0788008L0.0776367 16.3103ZM4.85778 16.3103H7.37861V15.7264H4.85778V16.3103ZM9.67866 16.3103H12.0994V15.7264H9.67866V16.3103Z" fill="#CCCCCC"/>
<path fill-rule="evenodd" clip-rule="evenodd" d="M0.076416 16.8945H2.59724V16.3105H0.0779683L0.076416 16.8945ZM4.85772 16.8945H7.37855V16.3105H4.85772V16.8945ZM9.67861 16.8945H12.0993V16.3105H9.67861V16.8945Z" fill="#CCCCCC"/>
<path fill-rule="evenodd" clip-rule="evenodd" d="M0.0751387 17.4581H2.59713V16.8943H0.0763024L0.0751387 17.4581ZM4.85761 17.4581H7.37844V16.8943H4.85761V17.4581ZM9.67849 17.4581H12.0992V16.8943H9.67849V17.4581ZM0.0739746 18.0424H2.59713V17.4581H0.0751387L0.0739746 18.0424ZM4.85761 18.0424H7.37844V17.4581H4.85761V18.0424ZM9.67849 18.0424H12.0992V17.4581H9.67849V18.0424Z" fill="#CCCCCC"/>
<path fill-rule="evenodd" clip-rule="evenodd" d="M0.0726407 18.606H2.59696V18.0422H0.0738044L0.0726407 18.606ZM4.85783 18.606H7.37865V18.0422H4.85783V18.606ZM9.67871 18.606H12.0994V18.0422H9.67871V18.606ZM0.0714766 19.1903H2.59735V18.606H0.0730285L0.0714766 19.1903ZM4.85783 19.1903H7.37865V18.606H4.85783V19.1903ZM9.67871 19.1903H12.0994V18.606H9.67871V19.1903ZM0.0703125 19.7739H2.59735V19.1903H0.0714766L0.0703125 19.7739ZM4.85783 19.7739H7.37865V19.1903H4.85783V19.7739ZM9.67871 19.7739H12.0994V19.1903H9.67871V19.7739Z" fill="#CCCCCC"/>
<path fill-rule="evenodd" clip-rule="evenodd" d="M0.0685469 20.3387H2.59713V19.7742H0.0700988L0.0685469 20.3387ZM4.85761 20.3387H7.37844V19.7742H4.85761V20.3387ZM9.6785 20.3387H12.0992V19.7742H9.6785V20.3387ZM0.0673828 20.9223H2.59675V20.3387H0.0681588L0.0673828 20.9223ZM4.85761 20.9223H7.37844V20.3387H4.85761V20.9223ZM9.6785 20.9223H12.0992V20.3387H9.6785V20.9223Z" fill="#CCCCCC"/>
<path fill-rule="evenodd" clip-rule="evenodd" d="M0.0662491 21.5064H2.59678V20.9221H0.0674132L0.0662491 21.5064ZM4.85764 21.5064H7.37847V20.9221H4.85764V21.5064ZM9.67853 21.5064H12.0992V20.9221H9.67853V21.5064ZM0.0646973 22.0706H2.59678V21.5068H0.0662491L0.0646973 22.0706ZM4.85764 22.0706H7.37847V21.5068H4.85764V22.0706ZM9.67853 22.0706H12.0992V21.5068H9.67853V22.0706Z" fill="#CCCCCC"/>
<path fill-rule="evenodd" clip-rule="evenodd" d="M0.0639648 22.6544H2.59721V22.0701H0.0651289L0.0639648 22.6544ZM4.85769 22.6544H7.37852V22.0701H4.85769V22.6544ZM9.67857 22.6544H12.0993V22.0701H9.67857V22.6544Z" fill="#CCCCCC"/>
<path fill-rule="evenodd" clip-rule="evenodd" d="M0.0624434 23.2378H2.59685V22.6543H0.0636071L0.0624434 23.2378ZM4.85772 23.2378H7.37854V22.6543H4.85772V23.2378ZM9.6786 23.2378H12.0993V22.6543H9.6786V23.2378ZM0.0612793 23.8016H2.59685V23.2378H0.0624434L0.0612793 23.8016ZM4.85772 23.8016H7.37854V23.2378H4.85772V23.8016ZM9.6786 23.8016H12.0993V23.2378H9.6786V23.8016Z" fill="#CCCCCC"/>
<path fill-rule="evenodd" clip-rule="evenodd" d="M0.0601892 24.3861H2.59692V23.8018H0.0613532L0.0601892 24.3861ZM4.85779 24.3861H7.37862V23.8018H4.85779V24.3861ZM9.67868 24.3861H12.0994V23.8018H9.67868V24.3861ZM0.0594132 24.9704H2.59731V24.3861H0.0605773L0.0594132 24.9704ZM4.85779 24.9704H7.37862V24.3861H4.85779V24.9704ZM9.67868 24.9704H12.0994V24.3861H9.67868V24.9704ZM0.0578613 25.5342H2.59731V24.9704H0.0594132L0.0578613 25.5342ZM4.85779 25.5342H7.37862V24.9704H4.85779V25.5342ZM9.67868 25.5342H12.0994V24.9704H9.67868V25.5342Z" fill="#CCCCCC"/>
<path fill-rule="evenodd" clip-rule="evenodd" d="M0.0566406 26.1175H2.59726V25.5339H0.0578047L0.0566406 26.1175ZM4.85774 26.1175H7.37856V25.5339H4.85774V26.1175ZM9.67862 26.1175H12.0993V25.5339H9.67862V26.1175Z" fill="#CCCCCC"/>
<path fill-rule="evenodd" clip-rule="evenodd" d="M30.7244 3.94575H31.0546L30.7244 3.36182V3.94575ZM30.7244 4.54987H31.3968L31.0546 3.94575H30.7244V4.54987Z" fill="#CCCCCC"/>
<path fill-rule="evenodd" clip-rule="evenodd" d="M30.7244 5.15392H31.7386L31.3968 4.5498H30.7244V5.15392ZM35.6256 5.15392H37.9861V4.56998H35.6256V5.15392Z" fill="#CCCCCC"/>
<path fill-rule="evenodd" clip-rule="evenodd" d="M30.7244 5.75855H32.0808L31.7386 5.15405H30.7244V5.75855ZM35.6256 5.75855H37.9861V5.15405H35.6256V5.75855Z" fill="#CCCCCC"/>
<path fill-rule="evenodd" clip-rule="evenodd" d="M30.7244 6.34224H32.411L32.0808 5.7583H30.7244V6.34224ZM35.6256 6.34224H37.9861V5.7583H35.6256V6.34224Z" fill="#CCCCCC"/>
<path fill-rule="evenodd" clip-rule="evenodd" d="M30.7244 6.9464H32.7532L32.411 6.34229H30.7244V6.9464ZM35.6256 6.9464H37.9861V6.34229H35.6256V6.9464ZM30.7244 7.55051H33.095L32.7532 6.9464H30.7244V7.55051ZM35.6256 7.55051H37.9861V6.9464H35.6256V7.55051Z" fill="#CCCCCC"/>
<path fill-rule="evenodd" clip-rule="evenodd" d="M30.7245 8.15426H33.4374L33.0952 7.55054H30.7245V8.15426ZM35.6257 8.15426H37.9863V7.55054H35.6257V8.15426ZM30.7245 8.73859H33.7676L33.437 8.15426H30.7241V8.73859H30.7245ZM35.6257 8.73859H37.9863V8.15426H35.6257V8.73859Z" fill="#CCCCCC"/>
<path fill-rule="evenodd" clip-rule="evenodd" d="M30.7244 9.34313H34.1093L33.7674 8.73901H30.7244V9.34313ZM35.6256 9.34313H37.9861V8.73901H35.6256V9.34313ZM30.7244 9.94724H34.4519L34.1093 9.34313H30.7244V9.94724ZM35.6256 9.94724H37.9861V9.34313H35.6256V9.94724Z" fill="#CCCCCC"/>
<path fill-rule="evenodd" clip-rule="evenodd" d="M30.7244 10.5513H34.7937L34.4519 9.94678H30.7244V10.5513ZM35.6256 10.5513H37.9861V9.94678H35.6256V10.5513Z" fill="#CCCCCC"/>
<path fill-rule="evenodd" clip-rule="evenodd" d="M30.7244 11.1347H35.1239L34.7933 10.5508H30.7244V11.1347ZM35.6256 11.1347H37.9861V10.5508H35.6256V11.1347ZM30.7244 11.7388H35.4657L35.1239 11.1347H30.7244V11.7388ZM35.6256 11.7388H37.9861V11.1347H35.6256V11.7388Z" fill="#CCCCCC"/>
<path fill-rule="evenodd" clip-rule="evenodd" d="M30.7244 12.3431H37.9861V11.739H35.6256V12.0215L35.4657 11.739H30.7244V12.3431ZM30.7244 12.9472H33.0446V12.4037L33.3946 12.9472H37.9861V12.3431H30.7244V12.9472Z" fill="#CCCCCC"/>
<path fill-rule="evenodd" clip-rule="evenodd" d="M30.7244 13.5317H33.0446V12.9478H30.7244V13.5317ZM33.7698 13.5317H37.9861V12.9478H33.3946L33.7698 13.5317Z" fill="#CCCCCC"/>
<path fill-rule="evenodd" clip-rule="evenodd" d="M30.7244 14.1359H33.0446V13.5317H30.7244V14.1359ZM34.1585 14.1359H37.9861V13.5317H33.7698L34.1585 14.1359Z" fill="#CCCCCC"/>
<path fill-rule="evenodd" clip-rule="evenodd" d="M30.7244 14.7396H33.0446V14.1355H30.7244V14.7396ZM34.5473 14.7396H37.9861V14.1355H34.1585L34.5473 14.7396Z" fill="#CCCCCC"/>
<path fill-rule="evenodd" clip-rule="evenodd" d="M30.7244 15.3238H33.0446V14.7395H30.7244V15.3238ZM34.9225 15.3238H37.9861V14.7395H34.5473L34.9225 15.3238Z" fill="#CCCCCC"/>
<path fill-rule="evenodd" clip-rule="evenodd" d="M30.7244 15.9281H33.0446V15.324H30.7244V15.9281ZM35.3109 15.9281H37.9861V15.324H34.9225L35.3109 15.9281Z" fill="#CCCCCC"/>
<path fill-rule="evenodd" clip-rule="evenodd" d="M30.7244 16.5321H33.0446V15.928H30.7244V16.5321ZM35.6997 16.5321H37.9861V15.928H35.3109L35.6997 16.5321ZM30.7244 17.1362H33.0446V16.5321H30.7244V17.1362ZM35.7257 17.1362H37.9861V16.5321H35.6997L35.7253 16.5724V17.1362H35.7257ZM30.7244 17.7205H33.0446V17.1362H30.7244V17.7205ZM35.7257 17.7205H37.9861V17.1362H35.7257V17.7205Z" fill="#CCCCCC"/>
<path fill-rule="evenodd" clip-rule="evenodd" d="M30.7244 18.3238H33.0446V17.7197H30.7244V18.3238ZM35.7257 18.3238H37.9861V17.7197H35.7257V18.3238ZM30.7244 18.928H33.0446V18.3238H30.7244V18.928ZM35.7257 18.928H37.9861V18.3238H35.7257V18.928Z" fill="#CCCCCC"/>
<path fill-rule="evenodd" clip-rule="evenodd" d="M30.7244 19.5329H33.0446V18.928H30.7244V19.5329ZM35.7257 19.5329H37.9861V18.928H35.7257V19.5329Z" fill="#CCCCCC"/>
<path fill-rule="evenodd" clip-rule="evenodd" d="M30.7244 20.1165H33.0446V19.533H30.7244V20.1165ZM35.7257 20.1165H37.9861V19.533H35.7257V20.1165ZM30.7244 20.7214H33.0446V20.1165H30.7244V20.7214ZM35.7257 20.7214H37.9861V20.1165H35.7257V20.7214Z" fill="#CCCCCC"/>
<path fill-rule="evenodd" clip-rule="evenodd" d="M30.7244 21.3255H33.0446V20.7214H30.7244V21.3255ZM35.7257 21.3255H37.9861V20.7214H35.7257V21.3255Z" fill="#CCCCCC"/>
<path fill-rule="evenodd" clip-rule="evenodd" d="M30.7244 21.9288H33.0446V21.3247H30.7244V21.9288ZM35.7257 21.9288H37.9861V21.3247H35.7257V21.9288ZM30.7244 22.5131H33.0446V21.9288H30.7244V22.5131ZM35.7257 22.5131H37.9861V21.9288H35.7257V22.5131Z" fill="#CCCCCC"/>
<path fill-rule="evenodd" clip-rule="evenodd" d="M30.7244 23.1178H33.0446V22.5137H30.7244V23.1178ZM35.7257 23.1178H37.9861V22.5137H35.7257V23.1178Z" fill="#CCCCCC"/>
<path fill-rule="evenodd" clip-rule="evenodd" d="M30.7244 23.7211H33.0446V23.1169H30.7244V23.7211ZM35.7257 23.7211H37.9861V23.1169H35.7257V23.7211Z" fill="#CCCCCC"/>
<path fill-rule="evenodd" clip-rule="evenodd" d="M30.7244 24.3255H33.0446V23.7214H30.7244V24.3255ZM35.7257 24.3255H37.9861V23.7214H35.7257V24.3255Z" fill="#CCCCCC"/>
<path fill-rule="evenodd" clip-rule="evenodd" d="M30.7244 24.9098H33.0446V24.3254H30.7244V24.9098ZM35.7257 24.9098H37.9861V24.3254H35.7257V24.9098ZM30.7244 25.5139H33.0446V24.9098H30.7244V25.5139ZM35.7257 25.5139H37.9861V24.9098H35.7257V25.5139Z" fill="#CCCCCC"/>
<path fill-rule="evenodd" clip-rule="evenodd" d="M30.7244 26.1178H33.0446V25.5137H30.7244V26.1178ZM35.7257 26.1178H37.9861V25.5137H35.7257V26.1178Z" fill="#CCCCCC"/>
<path fill-rule="evenodd" clip-rule="evenodd" d="M51.9573 1.18705H53.81V0.34082C53.81 0.34082 53.0642 0.596123 51.9573 1.18705Z" fill="#CCCCCC"/>
<path fill-rule="evenodd" clip-rule="evenodd" d="M50.5249 2.03246H53.8101V1.18701H51.9574C51.468 1.44808 50.99 1.73016 50.5249 2.03246Z" fill="#CCCCCC"/>
<path fill-rule="evenodd" clip-rule="evenodd" d="M49.3511 2.85838H53.81V2.03271H50.5248C50.1237 2.29357 49.7322 2.56898 49.3511 2.85838ZM48.3159 3.70421H53.81V2.85838H49.3511C48.9963 3.12822 48.6511 3.41033 48.3159 3.70421ZM47.4158 4.55005H52.9191C53.4654 4.29358 53.8104 4.18766 53.8104 4.18766V3.70421H48.3163C48.0065 3.97571 47.7061 4.25782 47.4158 4.55005Z" fill="#CCCCCC"/>
<path fill-rule="evenodd" clip-rule="evenodd" d="M46.6281 5.39554H51.4168C51.8965 5.07782 52.3985 4.79501 52.9188 4.54932H47.4154C47.1438 4.82273 46.8813 5.10495 46.6281 5.39554ZM45.9395 6.24138H50.2815C50.6437 5.93831 51.0227 5.65604 51.4168 5.39593H46.6281C46.3895 5.67019 46.1598 5.95215 45.9395 6.24138Z" fill="#CCCCCC"/>
<path fill-rule="evenodd" clip-rule="evenodd" d="M45.3347 7.08729H49.3683C49.6581 6.78987 49.9629 6.50755 50.2817 6.24146H45.9396C45.7289 6.51686 45.5272 6.79895 45.3347 7.08729ZM44.8179 7.91295H48.635C48.8667 7.6266 49.1116 7.35108 49.3687 7.08729H45.3351C45.1566 7.35307 44.9847 7.62816 44.8179 7.91295Z" fill="#CCCCCC"/>
<path fill-rule="evenodd" clip-rule="evenodd" d="M44.3562 8.75843H48.0081C48.2046 8.46753 48.4137 8.18532 48.6347 7.9126H44.8176C44.6556 8.19 44.5018 8.47206 44.3562 8.75843ZM43.9578 9.60466H47.4886C47.6554 9.30823 47.8288 9.02654 48.0085 8.75882H44.3566C44.2169 9.03275 44.0835 9.31444 43.9578 9.60466Z" fill="#CCCCCC"/>
<path fill-rule="evenodd" clip-rule="evenodd" d="M43.6169 10.4503H47.0581C47.1908 10.1631 47.3344 9.88092 47.4884 9.60449H43.9576C43.8363 9.88327 43.7227 10.1653 43.6169 10.4503Z" fill="#CCCCCC"/>
<path fill-rule="evenodd" clip-rule="evenodd" d="M43.33 11.2958H46.706C46.815 11.0032 46.9326 10.7208 47.0575 10.45H43.6164C43.5151 10.7254 43.4197 11.0075 43.33 11.2958ZM43.0984 12.1214H46.4266C46.5132 11.837 46.6063 11.562 46.7064 11.2958H43.3304C43.2458 11.5689 43.1684 11.8442 43.0984 12.1214Z" fill="#CCCCCC"/>
<path fill-rule="evenodd" clip-rule="evenodd" d="M42.9052 12.9672H46.2031C46.2707 12.6766 46.3448 12.3945 46.4266 12.1213H43.0984C43.0269 12.4016 42.9624 12.6836 42.9052 12.9672ZM42.7573 13.813H46.0332C46.0825 13.5228 46.1391 13.2411 46.2031 12.9672H42.9052C42.8497 13.2438 42.8004 13.5259 42.7573 13.813Z" fill="#CCCCCC"/>
<path fill-rule="evenodd" clip-rule="evenodd" d="M42.6512 14.6588H45.9143C45.9468 14.3694 45.9872 14.0873 46.0334 13.813H42.7575C42.7155 14.0941 42.6801 14.3761 42.6512 14.6588ZM42.581 15.5047H45.8417C45.8592 15.216 45.8832 14.9339 45.9146 14.6588H42.6516C42.6219 14.9402 42.5983 15.2222 42.581 15.5047ZM42.5522 16.3303H45.8114C45.8153 16.0494 45.825 15.7739 45.8417 15.5051H42.581C42.5658 15.7799 42.5562 16.0551 42.5522 16.3303Z" fill="#CCCCCC"/>
<path fill-rule="evenodd" clip-rule="evenodd" d="M42.5542 17.1759H45.8204C45.8124 16.9746 45.8084 16.7732 45.8084 16.5718C45.8084 16.4907 45.8099 16.4108 45.8115 16.3301H42.5523C42.5507 16.4438 42.5476 16.5574 42.5476 16.6727C42.5476 16.8426 42.5507 17.0102 42.5542 17.1759ZM50.5493 17.1759H53.81V16.6727H50.5493V17.1759Z" fill="#CCCCCC"/>
<path fill-rule="evenodd" clip-rule="evenodd" d="M42.5975 18.0226H45.8796C45.852 17.741 45.8323 17.4587 45.8206 17.176H42.5544C42.5626 17.4631 42.5769 17.7452 42.5975 18.0226ZM50.5492 18.0226H53.8099V17.176H50.5492V18.0226Z" fill="#CCCCCC"/>
<path fill-rule="evenodd" clip-rule="evenodd" d="M42.6764 18.8688H45.9895C45.9442 18.588 45.9076 18.306 45.8797 18.0229H42.5977C42.6178 18.3093 42.6438 18.5921 42.6764 18.8688ZM50.5493 18.8688H53.81V18.0229H50.5493V18.8688Z" fill="#CCCCCC"/>
<path fill-rule="evenodd" clip-rule="evenodd" d="M42.8012 19.714H46.1531C46.0897 19.4338 46.0351 19.1518 45.9894 18.8682H42.6763C42.7112 19.1557 42.7535 19.4374 42.8012 19.714ZM50.5491 19.714H53.8099V18.8682H50.5491V19.714Z" fill="#CCCCCC"/>
<path fill-rule="evenodd" clip-rule="evenodd" d="M42.9704 20.5597H46.3759C46.2924 20.2803 46.2181 19.9982 46.1532 19.7139H42.8013C42.8513 20.0018 42.9076 20.2838 42.9704 20.5597ZM50.5492 20.5597H53.81V19.7139H50.5492V20.5597Z" fill="#CCCCCC"/>
<path fill-rule="evenodd" clip-rule="evenodd" d="M43.1804 21.3851H46.6533C46.5514 21.1133 46.4589 20.838 46.3759 20.5598H42.9705C43.0341 20.8411 43.1035 21.1162 43.1804 21.3851ZM50.5492 21.3851H53.81V20.5598H50.5492V21.3851ZM43.4461 22.2317H47.0056C46.8783 21.9537 46.7608 21.6713 46.6533 21.3851H43.1804C43.2622 21.6738 43.3507 21.9566 43.4461 22.2317ZM50.5492 22.2317H53.81V21.3851H50.5492V22.2317Z" fill="#CCCCCC"/>
<path fill-rule="evenodd" clip-rule="evenodd" d="M43.7682 23.0773H47.4336C47.2803 22.8008 47.1375 22.5186 47.0053 22.2314H43.4458C43.5471 22.5205 43.6545 22.8022 43.7682 23.0773ZM50.5493 23.0773H53.81V22.2314H50.5493V23.0773Z" fill="#CCCCCC"/>
<path fill-rule="evenodd" clip-rule="evenodd" d="M44.1511 23.9232H47.9477C47.7655 23.6481 47.5942 23.3659 47.434 23.0774H43.7686C43.8888 23.3668 44.0169 23.6489 44.1511 23.9232ZM50.5492 23.9232H53.81V23.0774H50.5492V23.9232Z" fill="#CCCCCC"/>
<path fill-rule="evenodd" clip-rule="evenodd" d="M44.5989 24.7687H48.5615C48.345 24.4956 48.1402 24.2134 47.9477 23.9229H44.1511C44.2935 24.2139 44.4437 24.4951 44.5989 24.7687ZM50.5492 24.7687H53.81V23.9229H50.5492V24.7687Z" fill="#CCCCCC"/>
<path fill-rule="evenodd" clip-rule="evenodd" d="M45.1052 25.5941H49.2778C49.0266 25.33 48.7876 25.0546 48.5615 24.7688H44.5989C44.7585 25.0494 44.9274 25.3246 45.1052 25.5941ZM50.5492 25.5941H53.81V24.7688H50.5492V25.5941Z" fill="#CCCCCC"/>
<path fill-rule="evenodd" clip-rule="evenodd" d="M45.7031 26.4401H50.1818C49.8639 26.1762 49.562 25.8935 49.2778 25.5935H45.1052C45.2951 25.8822 45.4945 26.1646 45.7031 26.4401ZM50.5492 26.4401H53.81V25.5935H50.5492V26.4401Z" fill="#CCCCCC"/>
<path fill-rule="evenodd" clip-rule="evenodd" d="M46.3903 27.2863H53.81V26.4404H50.5492V26.7225C50.5492 26.7225 50.4115 26.6294 50.1818 26.4404H45.7031C45.9225 26.7301 46.1517 27.0122 46.3903 27.2863Z" fill="#CCCCCC"/>
<path fill-rule="evenodd" clip-rule="evenodd" d="M47.1805 28.132H53.8098V27.2861H46.3901C46.6485 27.5833 46.9132 27.8643 47.1805 28.132Z" fill="#CCCCCC"/>
<path fill-rule="evenodd" clip-rule="evenodd" d="M48.0925 28.9774H53.81V28.1316H47.1807C47.4745 28.4242 47.7786 28.7064 48.0925 28.9774Z" fill="#CCCCCC"/>
<path fill-rule="evenodd" clip-rule="evenodd" d="M49.1489 29.8234H53.8103V28.9775H48.0928C48.434 29.2727 48.7863 29.5548 49.1489 29.8234ZM50.3567 30.6494H53.8099V29.8234H49.1485C49.5406 30.114 49.9436 30.3896 50.3567 30.6494ZM51.8467 31.4953H53.8103V30.6494H50.3571C50.8926 30.985 51.397 31.2663 51.8467 31.4953Z" fill="#CCCCCC"/>
<path fill-rule="evenodd" clip-rule="evenodd" d="M53.8101 32.341V31.4951H51.8464C53.0151 32.0903 53.8101 32.341 53.8101 32.341Z" fill="#CCCCCC"/>
<path fill-rule="evenodd" clip-rule="evenodd" d="M59.3518 17.4988H61.7322V17.3374H59.3518V17.4988ZM64.5134 17.4988H66.9938V17.3374H64.5134V17.4988ZM59.3518 18.0824H61.7322V17.4988H59.3518V18.0824ZM64.5134 18.0824H66.9938V17.4988H64.5134V18.0824Z" fill="#CCCCCC"/>
<path fill-rule="evenodd" clip-rule="evenodd" d="M59.3518 18.6671H61.7322V18.0828H59.3518V18.6671ZM64.5134 18.6671H66.9938V18.0828H64.5134V18.6671Z" fill="#CCCCCC"/>
<path fill-rule="evenodd" clip-rule="evenodd" d="M59.3518 19.2503H61.7322V18.6667H59.3518V19.2503ZM64.5134 19.2503H66.9938V18.6667H64.5134V19.2503ZM59.3518 19.8346H61.7322V19.2503H59.3518V19.8346ZM64.5134 19.8346H66.9938V19.2503H64.5134V19.8346Z" fill="#CCCCCC"/>
<path fill-rule="evenodd" clip-rule="evenodd" d="M59.3518 20.419H61.7322V19.8347H59.3518V20.419ZM64.5134 20.419H66.9938V19.8347H64.5134V20.419ZM59.3518 21.0034H61.7322V20.419H59.3518V21.0034ZM64.5134 21.0034H66.9938V20.419H64.5134V21.0034Z" fill="#CCCCCC"/>
<path fill-rule="evenodd" clip-rule="evenodd" d="M59.3518 21.5865H61.7322V21.0029H59.3518V21.5865ZM64.5134 21.5865H66.9938V21.0029H64.5134V21.5865ZM59.3518 22.1906H61.7322V21.5865H59.3518V22.1906ZM64.5134 22.1906H66.9938V21.5865H64.5134V22.1906ZM59.3518 22.7749H61.7322V22.1906H59.3518V22.7749ZM64.5134 22.7749H66.9938V22.1906H64.5134V22.7749Z" fill="#CCCCCC"/>
<path fill-rule="evenodd" clip-rule="evenodd" d="M59.4104 23.3592H61.993C61.7815 23.0651 61.7322 22.7749 61.7322 22.7749H59.3518C59.3518 22.7749 59.3484 23.0104 59.4104 23.3592ZM64.4075 23.3592H66.9523C66.9811 23.1652 66.9911 23.0061 66.9939 22.9037V22.7749H64.5134C64.5134 22.7749 64.5421 23.0651 64.4075 23.3592ZM59.5606 23.9428H62.9843C62.4818 23.8706 62.1765 23.6138 61.993 23.3592H59.4104C59.4415 23.5311 59.4884 23.7305 59.5606 23.9428ZM63.5609 23.9428H66.8193C66.8852 23.7305 66.926 23.5311 66.952 23.3592H64.4071C64.2907 23.6138 64.0505 23.8706 63.5609 23.9428Z" fill="#CCCCCC"/>
<path fill-rule="evenodd" clip-rule="evenodd" d="M59.8143 24.5272H66.5837C66.6854 24.3293 66.7618 24.1311 66.8192 23.9429H63.5608C63.3696 23.9707 63.1754 23.9707 62.9842 23.9429H59.5605C59.6242 24.1307 59.7064 24.3293 59.8143 24.5272Z" fill="#CCCCCC"/>
<path fill-rule="evenodd" clip-rule="evenodd" d="M60.2204 25.1114H66.1964C66.347 24.9318 66.4769 24.7358 66.5836 24.5271H59.8142C59.9277 24.7362 60.0639 24.9322 60.2204 25.1114ZM60.9053 25.695H65.531C65.7808 25.5349 66.0051 25.3382 66.1964 25.1114H60.2204C60.419 25.3384 60.6497 25.535 60.9053 25.695Z" fill="#CCCCCC"/>
<path fill-rule="evenodd" clip-rule="evenodd" d="M65.531 25.6946H60.9053C61.4601 26.043 62.2117 26.2789 63.2325 26.2789C64.2483 26.2789 64.9901 26.0434 65.531 25.6946Z" fill="#CCCCCC"/>
<path fill-rule="evenodd" clip-rule="evenodd" d="M60.8932 4.6103H65.4696C64.9155 4.26111 64.1609 4.02637 63.1327 4.02637C62.1549 4.02598 61.4305 4.26111 60.8932 4.6103ZM60.2285 5.19424H66.1509C65.954 4.96692 65.7244 4.77012 65.4696 4.6103H60.8932C60.6443 4.77148 60.4204 4.96822 60.2285 5.19424Z" fill="#CCCCCC"/>
<path fill-rule="evenodd" clip-rule="evenodd" d="M59.8308 5.77827H66.5494C66.4385 5.56957 66.3048 5.37374 66.1509 5.19434H60.2285C60.0756 5.37427 59.9422 5.57003 59.8308 5.77827ZM59.5775 6.36221H66.7962C66.7312 6.16065 66.6485 5.96524 66.549 5.77827H59.8305C59.7303 5.96569 59.6457 6.16099 59.5775 6.36221ZM59.4238 6.94654H61.9489C62.1348 6.67455 62.477 6.42274 63.1121 6.42274C63.7578 6.42274 64.1058 6.67416 64.2928 6.94654H66.9398C66.9068 6.74857 66.8589 6.55337 66.7966 6.3626H59.5779C59.513 6.55343 59.4616 6.74855 59.4238 6.94654Z" fill="#CCCCCC"/>
<path fill-rule="evenodd" clip-rule="evenodd" d="M59.3535 7.53013H61.7377C61.7606 7.32139 61.8331 7.12116 61.9492 6.94619H59.4241C59.3733 7.21197 59.3581 7.42187 59.3535 7.53013ZM64.5077 7.53013H66.9939V7.48396C66.9882 7.30355 66.9702 7.12375 66.94 6.9458H64.2931C64.4483 7.17045 64.4937 7.40907 64.5077 7.53013ZM59.3519 8.13424H61.7323V7.61044C61.7323 7.61044 61.7323 7.58018 61.7377 7.53013H59.3535C59.3512 7.58173 59.3519 7.61044 59.3519 7.61044V8.13424ZM64.5135 8.13424H66.9939V7.53013H64.5077C64.5139 7.58018 64.5139 7.61044 64.5139 7.61044V8.13424H64.5135Z" fill="#CCCCCC"/>
<path fill-rule="evenodd" clip-rule="evenodd" d="M59.3518 8.7186H61.7322V8.13428H59.3518V8.7186ZM64.5134 8.7186H66.9938V8.13428H64.5134V8.7186ZM59.3518 9.30254H61.7322V8.7186H59.3518V9.30254ZM64.5134 9.30254H66.9938V8.7186H64.5134V9.30254Z" fill="#CCCCCC"/>
<path fill-rule="evenodd" clip-rule="evenodd" d="M59.3518 9.88618H61.7322V9.30225H59.3518V9.88618ZM64.5134 9.88618H66.9938V9.30225H64.5134V9.88618ZM59.3518 10.4705H61.7322V9.88657H59.3518V10.4705ZM64.5134 10.4705H66.9938V9.88657H64.5134V10.4705Z" fill="#CCCCCC"/>
<path fill-rule="evenodd" clip-rule="evenodd" d="M59.3518 11.0546H61.7322V10.4707H59.3518V11.0546ZM64.5134 11.0546H66.9938V10.4707H64.5134V11.0546ZM59.3518 11.6386H61.7322V11.0546H59.3518V11.6386ZM64.5134 11.6386H66.9938V11.0546H64.5134V11.6386ZM59.3518 12.2225H61.7322V11.6386H59.3518V12.2225ZM64.5134 12.2225H66.9938V11.6386H64.5134V12.2225Z" fill="#CCCCCC"/>
<path fill-rule="evenodd" clip-rule="evenodd" d="M59.3518 12.8063H61.7322V12.2224H59.3518V12.8063ZM64.5134 12.8063H66.9938V12.2224H64.5134V12.8063Z" fill="#CCCCCC"/>
<path fill-rule="evenodd" clip-rule="evenodd" d="M59.3518 13.3905H61.7322V12.8062H59.3518V13.3905ZM64.5134 13.3905H66.9938V12.8062H64.5134V13.3905Z" fill="#CCCCCC"/>
<path fill-rule="evenodd" clip-rule="evenodd" d="M59.3518 13.9743H61.7322V13.3904H59.3518V13.9743ZM64.5134 13.9743H66.9938V13.3904H64.5134V13.9743ZM59.3518 14.5586H61.7322V13.9747H59.3518V14.5586ZM64.5134 14.5586H66.9938V13.9747H64.5134V14.5586ZM59.3518 15.1628H61.7322V14.5586H59.3518V15.1628ZM64.5134 15.1628H66.9938V14.5586H64.5134V15.1628Z" fill="#CCCCCC"/>
<path fill-rule="evenodd" clip-rule="evenodd" d="M59.3518 15.7465H61.7322V15.1626H59.3518V15.7465ZM64.5134 15.7465H66.9938V15.1626H64.5134V15.7465ZM59.3518 16.3305H61.7322V15.7465H59.3518V16.3305ZM64.5134 16.3305H66.9938V15.7465H64.5134V16.3305Z" fill="#CCCCCC"/>
<path fill-rule="evenodd" clip-rule="evenodd" d="M59.3518 16.9144H61.7322V16.3301H59.3518V16.9144ZM64.5134 16.9144H66.9938V16.3301H64.5134V16.9144ZM66.9938 17.3373V16.9144H64.5134V17.3373H66.9938ZM61.7322 16.9144H59.3518V17.3373H61.7322V16.9144Z" fill="#CCCCCC"/>
<path fill-rule="evenodd" clip-rule="evenodd" d="M19.4388 4.77119H24.0509C23.5101 4.42316 22.7663 4.18726 21.7423 4.18726C20.7231 4.18726 19.9804 4.42316 19.4388 4.77119ZM18.7722 5.35513H24.7136C24.5237 5.1278 24.3001 4.93088 24.0505 4.77119H19.4388C19.1885 4.93117 18.9637 5.12804 18.7722 5.35513Z" fill="#CCCCCC"/>
<path fill-rule="evenodd" clip-rule="evenodd" d="M18.3958 5.91947H25.0856C24.9828 5.71846 24.8582 5.5294 24.7139 5.35571H18.7721C18.6265 5.52936 18.5003 5.7184 18.3958 5.91947Z" fill="#CCCCCC"/>
<path fill-rule="evenodd" clip-rule="evenodd" d="M18.1555 6.50289H25.3203C25.2598 6.30156 25.1812 6.10611 25.0855 5.91895H18.3957C18.2985 6.10613 18.2182 6.30154 18.1555 6.50289ZM18.0212 7.08721H20.6538C20.835 6.84238 21.1687 6.60376 21.7821 6.60376C22.4149 6.60376 22.7498 6.84238 22.9259 7.08721H25.4487C25.4212 6.88953 25.3784 6.6943 25.3207 6.50327H18.1555C18.0884 6.71784 18.0468 6.91765 18.0212 7.08721Z" fill="#CCCCCC"/>
<path fill-rule="evenodd" clip-rule="evenodd" d="M17.9811 7.65117H20.4418V7.61081C20.4418 7.61081 20.4632 7.34542 20.654 7.0874H18.0215C17.9738 7.40207 17.9811 7.61081 17.9811 7.61081V7.65117ZM23.1225 7.65117H25.4831V7.4851C25.479 7.35199 25.4675 7.21921 25.4485 7.0874H22.9258C23.112 7.34542 23.1225 7.61081 23.1225 7.61081V7.65117ZM17.9811 8.2351H20.4418V7.65117H17.9811V8.2351ZM23.1225 8.2351H25.4831V7.65117H23.1225V8.2351Z" fill="#CCCCCC"/>
<path fill-rule="evenodd" clip-rule="evenodd" d="M17.981 8.81978H20.4416V8.23584H17.981V8.81978ZM23.1223 8.81978H25.4829V8.23584H23.1223V8.81978ZM17.981 9.38354H20.4416V8.81978H17.981V9.38354ZM23.1223 9.38354H25.4829V8.81978H23.1223V9.38354Z" fill="#CCCCCC"/>
<path fill-rule="evenodd" clip-rule="evenodd" d="M17.981 9.96699H20.4416V9.38306H17.981V9.96699ZM23.1223 9.96699H25.4829V9.38306H23.1223V9.96699ZM17.981 10.5308H20.4416V9.96699H17.981V10.5308ZM23.1223 10.5308H25.4829V9.96699H23.1223V10.5308Z" fill="#CCCCCC"/>
<path fill-rule="evenodd" clip-rule="evenodd" d="M17.981 11.1151H20.4416V10.5308H17.981V11.1151ZM23.1223 11.1151H25.4829V10.5308H23.1223V11.1151ZM17.981 11.699H20.4416V11.1151H17.981V11.699ZM23.1223 11.699H25.4829V11.1151H23.1223V11.699Z" fill="#CCCCCC"/>
<path fill-rule="evenodd" clip-rule="evenodd" d="M17.981 12.2627H20.4416V11.699H17.981V12.2627ZM23.1223 12.2627H25.4829V11.699H23.1223V12.2627Z" fill="#CCCCCC"/>
<path fill-rule="evenodd" clip-rule="evenodd" d="M17.981 12.847H20.4416V12.2627H17.981V12.847ZM23.1223 12.847H25.4829V12.2627H23.1223V12.847Z" fill="#CCCCCC"/>
<path fill-rule="evenodd" clip-rule="evenodd" d="M17.981 13.4306H20.4416V12.8467H17.981V13.4306ZM23.1223 13.4306H25.4829V12.8467H23.1223V13.4306Z" fill="#CCCCCC"/>
<path fill-rule="evenodd" clip-rule="evenodd" d="M17.981 13.9944H20.4416V13.4307H17.981V13.9944ZM23.1223 13.9944H25.4829V13.4307H23.1223V13.9944ZM17.981 14.5784H20.4416V13.9944H17.981V14.5784ZM23.1223 14.5784H25.4829V13.9944H23.1223V14.5784ZM17.981 15.1627H20.4416V14.5788H17.981V15.1627ZM23.1223 15.1627H25.4829V14.5788H23.1223V15.1627Z" fill="#CCCCCC"/>
<path fill-rule="evenodd" clip-rule="evenodd" d="M17.981 15.7264H20.4416V15.1626H17.981V15.7264ZM23.1223 15.7264H25.4829V15.1626H23.1223V15.7264ZM17.981 16.3103H20.4416V15.7264H17.981V16.3103ZM23.1223 16.3103H25.4829V15.7264H23.1223V16.3103Z" fill="#CCCCCC"/>
<path fill-rule="evenodd" clip-rule="evenodd" d="M17.981 16.8945H20.4416V16.3105H17.981V16.8945ZM23.1223 16.8945H25.4829V16.3105H23.1223V16.8945Z" fill="#CCCCCC"/>
<path fill-rule="evenodd" clip-rule="evenodd" d="M17.981 17.4581H20.4416V16.8943H17.981V17.4581ZM23.1223 17.4581H25.4829V16.8943H23.1223V17.4581ZM17.981 18.0424H20.4416V17.4581H17.981V18.0424ZM23.1223 18.0424H25.4829V17.4581H23.1223V18.0424Z" fill="#CCCCCC"/>
<path fill-rule="evenodd" clip-rule="evenodd" d="M17.9811 18.606H20.4418V18.0422H17.9811V18.606ZM23.1225 18.606H25.4831V18.0422H23.1225V18.606ZM17.9811 19.1903H20.4418V18.606H17.9811V19.1903ZM23.1225 19.1903H25.4831V18.606H23.1225V19.1903ZM14.8872 19.7739H25.4831V19.1903H23.1225V19.3312H20.4418V19.1903H17.9811V19.3312H14.6001L14.8872 19.7739Z" fill="#CCCCCC"/>
<path fill-rule="evenodd" clip-rule="evenodd" d="M15.2531 20.3387H25.4831V19.7742H14.8872L15.2531 20.3387ZM15.6314 20.9223H25.4831V20.3387H15.2531L15.6314 20.9223Z" fill="#CCCCCC"/>
<path fill-rule="evenodd" clip-rule="evenodd" d="M16.01 21.5063H25.483V20.9224H15.6313L16.01 21.5063ZM18.0812 22.0705H20.4018V21.748H23.1826V22.0705H25.483V21.5063H16.01L16.1408 21.7081H18.0812V22.0705Z" fill="#CCCCCC"/>
<path fill-rule="evenodd" clip-rule="evenodd" d="M18.0811 22.6544H20.4017V22.0701H18.0811V22.6544ZM23.1825 22.6544H25.4829V22.0701H23.1825V22.6544Z" fill="#CCCCCC"/>
<path fill-rule="evenodd" clip-rule="evenodd" d="M18.0811 23.2378H20.4017V22.6543H18.0811V23.2378ZM23.1825 23.2378H25.4829V22.6543H23.1825V23.2378ZM18.0811 23.8016H20.4017V23.2378H18.0811V23.8016ZM23.1825 23.8016H25.4829V23.2378H23.1825V23.8016Z" fill="#CCCCCC"/>
<path fill-rule="evenodd" clip-rule="evenodd" d="M18.0811 24.3861H20.4017V23.8018H18.0811V24.3861ZM23.1825 24.3861H25.4829V23.8018H23.1825V24.3861ZM18.0811 24.9704H20.4017V24.3861H18.0811V24.9704ZM23.1825 24.9704H25.4829V24.3861H23.1825V24.9704ZM18.0811 25.5342H20.4017V24.9704H18.0811V25.5342ZM23.1825 25.5342H25.4829V24.9704H23.1825V25.5342Z" fill="#CCCCCC"/>
<path fill-rule="evenodd" clip-rule="evenodd" d="M18.0811 26.1175H20.4017V25.5339H18.0811V26.1175ZM23.1825 26.1175H25.4829V25.5339H23.1825V26.1175Z" fill="#CCCCCC"/>
</svg>
