<svg width="96" height="33" viewBox="0 0 96 33" fill="none" xmlns="http://www.w3.org/2000/svg">
<path fill-rule="evenodd" clip-rule="evenodd" d="M1.83049 25.8938L9.5362 25.7901L9.55815 25.7452L1.25467 24.4159L1.2123 24.2556L8.17475 24.1561C8.17475 24.1561 8.11706 24.0177 7.93942 23.6747L0.775837 22.5338L0.751334 22.3735L7.45344 22.277L7.34879 21.8094L0.552757 20.7946L0.5451 20.597L7.14715 20.5021L7.0961 20.0156L0.496094 18.9308L0.507324 18.7695L7.09814 18.6745C7.06394 18.4862 7.11907 18.1054 7.11907 18.1054L0.600742 17.113L0.62984 16.9506L7.21606 16.8741C7.21504 16.7801 7.25333 16.4346 7.25333 16.4346L0.84271 15.2834L0.871808 15.1216L7.52031 15.0256C7.52031 15.0256 7.5637 14.6611 7.63976 14.4718L1.2317 13.4937L1.27866 13.3313L7.94095 13.2354C7.94095 13.2354 8.07929 12.8494 8.15586 12.707L1.7774 11.7448L1.82437 11.6008L8.59896 11.5033C8.59896 11.5033 8.79498 11.0954 8.84042 10.9852L2.51096 10.0056L2.5763 9.86109L9.47137 9.76205C9.47137 9.76205 9.65616 9.3991 9.82564 9.14539L3.50283 8.16629L3.56766 8.03969L10.6587 7.95547C10.6587 7.95547 10.8721 7.61957 11.0585 7.44447L4.66672 6.48681L4.78567 6.34183L12.0355 6.23769C12.0355 6.23769 12.3183 5.92936 12.5205 5.76958L6.23594 4.81039L6.33702 4.66542L13.7242 4.55311L14.2071 4.12481L8.48257 2.88792L8.46878 2.88945C10.9257 1.33248 13.9748 0.391667 17.6488 0.342661C24.4785 0.250264 30.2454 3.63118 30.4378 11.5697L21.5585 11.6891C21.2645 8.87484 19.5865 7.91564 17.196 7.9478C12.0309 8.01723 9.80012 13.5549 9.87056 18.8062C9.91906 22.3914 11.4878 24.7615 15.2868 24.7095C17.8055 24.6758 19.9276 23.7513 20.8337 21.2627L16.565 21.3193L17.8433 14.7699L30.3077 14.6019L27.0334 31.4248L21.0996 31.5045L21.3161 28.5564L21.2298 28.4717C19.3022 31.1446 16.2858 32.2952 13.0417 32.3391C6.70048 32.4249 3.4186 29.288 1.83968 25.9193L1.83049 25.8938ZM47.5706 14.8352C46.6609 14.2982 45.5338 13.9281 44.0825 13.9449C42.2754 13.9654 40.3126 14.6999 40.3391 16.9721C40.3759 20.1754 46.8922 20.1279 46.9499 25.1377C46.983 28.0123 45.0218 31.2936 40.4223 31.3462C38.2048 31.3722 36.6111 30.8975 35.071 30.3125L35.9184 27.7841C37.0486 28.4829 38.6152 28.9577 39.9568 28.9429C42.8589 28.9092 44.0702 27.0883 44.0513 25.5002C44.0069 21.6129 37.4988 22.3725 37.4376 17.0614C37.3972 13.584 40.5505 11.5763 43.6991 11.5401C45.2867 11.5217 46.8508 11.805 48.3088 12.3905L47.5706 14.8352ZM58.5138 30.5626C57.1758 30.9067 55.7827 31.1691 54.3871 31.1849C50.9924 31.2237 47.9371 29.8908 47.88 24.9626C47.8355 21.1024 50.4946 16.6086 55.4228 16.5515C58.79 16.5127 60.7022 18.5168 60.741 21.8298C60.7512 22.7599 60.6512 23.5558 60.5235 24.3781L50.6947 24.492C50.6437 24.7816 50.6196 25.0754 50.6228 25.3695C50.6565 28.2986 52.4733 29.1261 54.9649 29.0975C56.2513 29.0827 57.6439 28.7387 58.8972 28.2032L58.5138 30.5626ZM58.0921 22.4899C58.1432 22.0789 58.1661 21.7502 58.1621 21.4209C58.1442 19.7787 57.1171 18.6133 55.1732 18.6352C53.0654 18.6592 51.4712 20.5128 50.9479 22.5726L58.0921 22.4899ZM62.4042 18.9344C62.5078 18.358 62.6635 17.6173 62.763 16.795L65.173 16.7669L64.76 18.9895H64.8146C65.6202 17.6653 67.1118 16.4162 69.5483 16.3881C69.7944 16.385 70.2334 16.4351 70.7286 16.6214L70.1793 18.8997C69.6846 18.7144 69.2732 18.6363 69.0818 18.6393C65.9061 18.6751 64.3848 22.1427 64.0489 23.8717L62.6768 30.7602L60.1034 30.7903L62.4042 18.9344ZM71.5234 16.6929L74.0967 16.6638L71.3008 30.6601L68.7275 30.6902L71.5234 16.6929ZM74.9099 13.533L72.0073 13.5662L72.5755 10.6569L75.4781 10.6237L74.9099 13.533ZM84.3262 30.2635C82.9883 30.6075 81.5952 30.8699 80.1995 30.8858C76.8048 30.9256 73.7496 29.5917 73.6929 24.6635C73.648 20.8032 76.3071 16.3095 81.2353 16.2523C84.6024 16.214 86.5147 18.2187 86.5535 21.5307C86.5637 22.4618 86.4636 23.2566 86.336 24.08L76.5072 24.1928C76.4562 24.4825 76.4321 24.7763 76.4352 25.0704C76.4689 27.9995 78.2857 28.827 80.7774 28.7984C82.0638 28.7846 83.4564 28.4395 84.7096 27.9051L84.3262 30.2635ZM83.9046 22.1907C83.9556 21.7798 83.9786 21.4511 83.9745 21.1218C83.9556 19.4796 82.9296 18.3141 80.9857 18.3361C78.8779 18.3611 77.2837 20.2136 76.7604 22.2734L83.9046 22.1907Z" fill="#CCCCCC"/>
<path fill-rule="evenodd" clip-rule="evenodd" d="M95.2566 18.8835C94.5409 18.5353 93.4143 18.1923 92.4561 18.2035C91.3335 18.2163 89.8588 18.5343 89.8746 19.9315C89.9027 22.3124 94.6675 22.367 94.7124 26.2548C94.7512 29.623 91.6694 30.7532 89.48 30.7782C87.2624 30.8042 86.437 30.5122 85.3931 30.1682L85.8596 27.9455C86.8775 28.3442 87.9506 28.7153 89.0721 28.7021C90.4688 28.6863 91.9956 28.0931 91.9762 26.5055C91.9492 24.1236 87.1813 23.8224 87.1404 20.2909C87.1067 17.3337 90.0497 16.1499 92.3499 16.1233C93.5812 16.109 94.8446 16.3954 95.9998 16.8477L95.2566 18.8835Z" fill="#CCCCCC"/>
</svg>
