<svg width="61" height="33" viewBox="0 0 61 33" fill="none" xmlns="http://www.w3.org/2000/svg">
<path fill-rule="evenodd" clip-rule="evenodd" d="M26.1014 28.0959C23.5174 30.2182 20.1029 31.51 16.5037 31.51C8.01343 31.51 1.20744 24.6807 1.20744 16.3061C1.20744 7.90826 8.01343 1.07892 16.5037 1.07892C22.1332 1.07892 27.0245 4.12437 29.7006 8.73871C30.0696 8.83106 30.3467 8.92341 30.7154 9.01576C28.0397 3.84767 22.6869 0.34082 16.5037 0.34082C7.64404 0.34082 0.468994 7.44686 0.468994 16.3061C0.468994 25.1428 7.64438 32.3408 16.5037 32.3408C20.6566 32.3408 24.4402 30.6799 27.3012 28.0959H26.1014Z" fill="#CCCCCC"/>
<path fill-rule="evenodd" clip-rule="evenodd" d="M18.5339 27.3579H60.4084V21.0823H18.5339V27.3579Z" fill="#CCCCCC"/>
<path fill-rule="evenodd" clip-rule="evenodd" d="M20.6564 9.84566L20.4717 10.6765H18.4414C17.8876 16.583 17.5186 21.3583 17.1495 23.5737C16.3191 27.5419 12.6275 29.7566 10.2282 29.7566C9.39772 29.7566 8.38257 29.3879 8.38257 28.3727C8.38257 27.819 8.84397 27.3576 9.39772 27.3576C10.2282 27.3576 10.8743 28.0033 11.3357 28.7414C12.6279 28.0033 12.8122 27.3576 13.366 24.7732C13.643 23.5737 14.3811 15.0137 14.7502 10.6765H13.0889L13.2736 9.84566H14.9349L15.1196 8.36945C16.0424 2.92466 20.0106 2.27856 21.4875 2.27856C22.2256 2.27856 23.7021 2.64762 23.7021 3.66276C23.7021 4.30852 23.1484 4.58556 22.5946 4.58556C21.5795 4.58556 21.1181 4.03182 20.6564 3.20102C18.9951 3.93947 18.7184 8.00006 18.5337 9.84532H20.6564V9.84566ZM20.472 17.4131C20.472 13.0761 23.2407 9.29225 27.9471 9.29225C30.9005 9.29225 32.5611 10.5844 32.5611 13.4452C32.5611 17.7825 29.7927 21.451 25.086 21.451C22.1332 21.451 20.472 20.1588 20.472 17.4131ZM28.7779 14.0913C28.7779 12.9838 28.6855 10.3077 27.0246 10.3077C24.6253 10.3077 24.2559 15.0141 24.2559 16.7677C24.2559 17.7828 24.3482 20.5286 26.0091 20.5286C28.4085 20.5282 28.7779 15.8445 28.7779 14.0913ZM33.5766 17.4131C33.5766 13.0761 36.4377 9.29225 41.144 9.29225C44.0051 9.29225 45.735 10.5844 45.735 13.4452C45.735 17.7825 42.8973 21.451 38.1909 21.451C35.3298 21.451 33.5766 20.1588 33.5766 17.4131ZM41.9745 14.0913C41.9745 12.9838 41.8825 10.3077 40.2212 10.3077C37.7295 10.3077 37.4528 15.0141 37.4528 16.7677C37.4528 17.7828 37.4528 20.5286 39.1137 20.5286C41.6051 20.5282 41.9745 15.8445 41.9745 14.0913ZM60.0398 20.0668C58.3782 20.8049 56.3479 21.4507 54.9641 21.4507C54.2259 21.4507 54.3176 20.3428 54.3176 19.8818C54.3176 19.3287 54.3176 18.5896 54.5027 17.1367L54.41 17.044C53.4872 18.959 51.6416 21.4507 49.2422 21.4507C47.3963 21.4507 46.5655 19.5127 46.5655 17.8748C46.5655 13.8139 49.7953 9.47695 54.41 9.47695H55.3328C55.7022 6.61586 55.7021 5.41636 55.7021 4.49322C55.7021 4.21651 55.7022 3.93947 55.4251 3.93947C55.1481 3.93947 54.7794 4.03182 53.8562 4.30852L53.6719 3.57042C55.5178 2.92466 57.5481 2.55527 59.3933 2.46292C59.5784 2.46292 59.6704 2.46292 59.6704 2.83197C59.6704 5.23132 57.8245 17.7822 57.8245 19.0517C57.8245 19.3287 57.8245 19.7898 58.1939 19.7898C58.3782 19.7898 59.0246 19.6047 59.7627 19.3284L60.0398 20.0668ZM54.0406 16.1216C54.687 14.5527 54.8714 12.9838 55.2408 10.5844C55.0557 10.4918 54.8714 10.4918 54.7794 10.4918C51.9183 10.4918 50.5337 14.737 50.5337 17.044C50.5337 17.5978 50.6264 18.959 51.4569 18.959C52.6567 18.9593 53.6719 17.0444 54.0406 16.1216Z" fill="#CCCCCC"/>
<path fill-rule="evenodd" clip-rule="evenodd" d="M21.0256 22.5584H22.0408L23.3326 24.4964V22.5584H24.1634V26.2496H23.425L21.8561 24.1277V26.2496H21.0256V22.5584ZM26.5624 22.5584H29.4235V23.2969H27.6699V23.9423H28.7778V24.7731H27.6699V25.4188H29.4235V26.2496H26.5624V22.5584ZM32.4693 23.2969H31.4542V22.5584H34.5916V23.2969H33.5765V26.2496H32.4693V23.2969ZM36.4376 22.5584H37.5444L38.0065 24.4964H38.0981L38.5595 22.5584H39.483L39.9441 24.4964H40.0368L40.4982 22.5584H41.3283L40.4055 26.2496H39.483L38.9289 24.2193L38.3752 26.2496H37.4527L36.4376 22.5584ZM45.0891 26.3423C44.005 26.3423 43.2666 25.6042 43.2666 24.404C43.2666 23.2045 44.0047 22.4661 45.0891 22.4661C46.197 22.4661 46.8424 23.2042 46.8424 24.404C46.8424 25.6039 46.1966 26.3423 45.0891 26.3423ZM44.4434 24.4037C44.4434 25.4188 44.7204 25.6039 45.0891 25.6039C45.4585 25.6039 45.7349 25.4188 45.7349 24.4037C45.7349 23.3892 45.4585 23.2042 45.0891 23.2042C44.6277 23.2042 44.4434 23.4812 44.4434 24.4037ZM49.0571 22.5584H50.903C52.1025 22.5584 52.3795 23.1115 52.3795 23.5736C52.3795 24.035 52.1025 24.4037 51.6414 24.4964L52.3795 26.2496H51.18L50.6263 24.6807H50.1649V26.2496H49.0571V22.5584ZM50.1649 24.035H50.7186C50.995 24.035 51.2724 23.8499 51.2724 23.6656C51.2724 23.3892 51.0874 23.2042 50.7186 23.2042H50.1649V24.035ZM54.6869 22.5584H55.7944V24.035L56.9015 22.5584H57.9167L56.9939 23.7579L58.101 26.2496H56.9939L56.2558 24.6807L55.7944 25.3272V26.2496H54.6869V22.5584Z" fill="white"/>
</svg>
