<svg width="132" height="33" viewBox="0 0 132 33" fill="none" xmlns="http://www.w3.org/2000/svg">
<g clip-path="url(#clip0_4015_15167)">
<path d="M113.182 0.34082C111.112 0.34082 109.419 2.01262 109.424 4.08271C109.419 6.16329 111.127 7.82985 113.203 7.82461C115.273 7.82985 116.929 6.16329 116.929 4.08271C116.924 2.01786 115.252 0.34082 113.182 0.34082ZM45.2513 0.403709C43.1707 0.403709 41.4937 2.05979 41.4937 4.12988C41.4937 6.21046 43.176 7.90322 45.2513 7.90846C47.3162 7.90846 48.9932 6.21046 48.9932 4.12988C48.9984 2.05979 47.3162 0.403709 45.2513 0.403709ZM101.149 4.60679C99.0842 4.60679 97.3915 6.27859 97.3915 8.34868C97.3915 10.4188 99.079 12.1063 101.149 12.1063C103.224 12.1063 104.891 10.424 104.891 8.34868C104.896 6.28383 103.224 4.60679 101.149 4.60679ZM125.288 4.60679C123.223 4.60679 121.53 6.27859 121.53 8.34868C121.53 10.4188 123.223 12.1063 125.288 12.1063C127.369 12.1063 129.014 10.4188 129.014 8.34868C129.014 6.27859 127.369 4.60155 125.288 4.60679ZM57.0901 4.66968C55.0253 4.66968 53.3325 6.36244 53.3325 8.42729C53.3325 10.5026 55.0201 12.1692 57.0901 12.1692C59.1498 12.1692 60.832 10.4974 60.832 8.42729C60.832 6.36244 59.155 4.66968 57.0901 4.66968ZM33.1923 4.76925C31.1275 4.76401 29.4504 6.43581 29.4504 8.50066V8.51639C29.4504 10.5917 31.117 12.2792 33.1923 12.274C35.252 12.274 36.9342 10.5865 36.9342 8.51639C36.9342 6.44105 35.252 4.76925 33.1923 4.76925ZM114.466 13.5108C114.466 13.5108 107.019 13.558 106.93 13.558C105.661 13.558 104.587 14.6376 104.587 15.9006L104.571 29.4427H104.587C104.645 31.0464 105.986 32.3408 107.6 32.3408C109.23 32.3408 110.572 31.0464 110.63 29.4427V24.7365C110.63 24.7365 113.606 24.7208 113.706 24.7208C114.854 24.7208 115.807 23.8089 115.807 22.6559C115.807 21.4977 114.859 20.5544 113.706 20.5544H110.63V19.3018H114.471C116.064 19.3018 117.343 18.0283 117.338 16.4352C117.333 14.8577 116.059 13.5108 114.466 13.5108ZM128.17 13.5108C128.17 13.5108 120.723 13.558 120.634 13.558C119.355 13.558 118.292 14.6323 118.292 15.9006V29.4427H118.307C118.36 31.0464 119.68 32.3408 121.305 32.3408C122.94 32.3408 124.25 31.0516 124.303 29.4427H124.318V24.7365C124.318 24.7365 127.29 24.7208 127.395 24.7208C128.542 24.7208 129.496 23.8089 129.496 22.6559C129.496 21.4977 128.542 20.5544 127.395 20.5544H124.313V19.3018H128.155C129.737 19.3018 131.021 18.0283 131.021 16.4352C131.021 14.8577 129.753 13.5056 128.17 13.5108ZM60.7639 13.5423C59.176 13.5423 57.8972 14.821 57.8972 16.3932C57.8972 16.498 57.9182 16.6081 57.9287 16.7182L57.9129 29.4165L57.9287 29.5632C58.0073 31.0621 59.2493 32.2675 60.7796 32.2675C62.3676 32.2675 63.6463 30.9939 63.6463 29.4165C63.6463 29.2331 63.6306 29.0601 63.5992 28.8977V25.1296L67.8651 30.8577C67.928 30.952 67.9961 31.0464 68.059 31.1512L68.0747 31.1826C68.625 31.822 69.4583 32.2255 70.3702 32.2255C72.0315 32.2255 73.3679 30.8839 73.3679 29.2278C73.3731 28.6513 73.2107 28.0853 72.8962 27.5979L72.8491 27.5351C72.8071 27.4669 72.7705 27.3988 72.718 27.3411L68.8609 22.1633L72.0001 18.369H71.9843C72.3931 17.8711 72.6499 17.237 72.6499 16.5295C72.6447 14.9153 71.3345 13.5842 69.7203 13.5842C68.6617 13.5842 67.7446 14.1449 67.231 14.9835L63.5992 19.3647V16.823C63.6149 16.6815 63.6306 16.5295 63.6306 16.3827C63.6306 14.821 62.3466 13.5423 60.7639 13.5423ZM2.54446 13.558C1.14518 13.558 0.0236568 14.7005 0.0236568 16.0788C0.0236568 16.0788 0.00793457 29.5265 0.00793457 29.7519C0.00793457 31.1826 1.09801 32.257 2.52873 32.257L9.03774 32.2727C12.2346 32.2727 14.834 29.689 14.834 26.4921C14.834 24.6841 14.0269 23.0752 12.7325 22.0166C13.4924 21.1151 13.9693 19.9465 13.9693 18.6625C13.9745 15.8534 11.6424 13.5475 8.80715 13.5527H2.54446V13.558ZM46.4934 13.6418C41.3784 13.6418 37.2172 17.7977 37.2172 22.918C37.2172 28.0382 41.3784 32.2098 46.4934 32.2098C51.6136 32.2098 55.7747 28.0382 55.7695 22.918C55.7695 17.7977 51.6136 13.6418 46.4934 13.6418ZM25.5094 13.6733C20.384 13.6733 16.2438 17.8397 16.249 22.9704C16.249 28.0853 20.3787 32.236 25.5094 32.2308C30.6401 32.2308 34.7855 28.0853 34.7855 22.9704C34.7855 17.8449 30.6401 13.6733 25.5094 13.6733ZM93.8068 13.6733C88.6656 13.6733 84.494 17.8554 84.494 23.0018C84.494 28.1377 88.6604 32.3146 93.8068 32.3146C98.9427 32.3146 103.12 28.1377 103.12 23.0018C103.12 17.8554 98.948 13.6733 93.8068 13.6733ZM5.06525 17.7715H7.39215C8.16778 17.7715 8.79142 18.3847 8.79142 19.1708C8.79142 19.936 8.16254 20.5387 7.39215 20.5387C7.31878 20.5387 5.06525 20.5544 5.06525 20.5544V17.7715ZM78.2994 18.9926C76.2293 18.9926 74.5628 20.6802 74.5575 22.7503C74.5628 24.8203 76.2293 26.5079 78.2994 26.5079C80.3748 26.5079 82.0571 24.8203 82.0571 22.7503C82.0518 20.6854 80.3643 18.9926 78.2994 18.9926ZM46.4934 19.0765C48.6211 19.0765 50.3505 20.8007 50.3505 22.9337C50.3505 25.0562 48.6211 26.7751 46.4934 26.7751C44.3656 26.7751 42.6519 25.0457 42.6519 22.918C42.6466 20.8007 44.3604 19.0817 46.4776 19.0765H46.4934ZM25.5094 19.1079C27.6319 19.1079 29.3666 20.8321 29.3666 22.9651C29.3666 25.0929 27.6371 26.8118 25.5094 26.8066C23.4026 26.8118 21.6732 25.0929 21.6679 22.9651C21.6679 20.8321 23.3974 19.1079 25.5094 19.1079ZM93.8068 19.1394C95.9398 19.1394 97.664 20.8531 97.664 22.9966C97.664 25.1243 95.9346 26.8538 93.8068 26.8538C91.6738 26.8538 89.9444 25.1243 89.9496 22.9966C89.9444 20.8688 91.6633 19.1446 93.7911 19.1394H93.8068ZM5.06525 24.5111L8.02628 24.5269C8.83335 24.5269 9.49368 25.1662 9.49368 25.9733C9.48844 26.7909 8.83859 27.4407 8.02628 27.4407H5.08098L5.06525 24.5111ZM128.039 27.4407C126.687 27.4407 125.613 28.5256 125.613 29.8829C125.618 31.2455 126.682 32.3251 128.039 32.3251C129.391 32.3251 130.482 31.2403 130.482 29.8829C130.487 28.536 129.397 27.446 128.05 27.4407C128.05 27.4407 128.045 27.4407 128.039 27.4407ZM128.039 27.687C129.245 27.687 130.235 28.6671 130.235 29.8829C130.235 31.0935 129.245 32.0788 128.039 32.0788C126.829 32.0788 125.859 31.0883 125.859 29.8829C125.859 28.6671 126.829 27.687 128.039 27.687ZM126.934 28.4365V31.2665H127.521V30.1607H128.123C128.296 30.1607 128.422 30.1816 128.48 30.2445C128.542 30.2969 128.579 30.4227 128.579 30.6009V30.8629C128.579 30.952 128.59 31.0254 128.595 31.1092C128.605 31.1564 128.626 31.2141 128.642 31.2717H129.292V31.2088C129.234 31.1774 129.192 31.104 129.177 31.0306C129.166 30.9835 129.161 30.8996 129.161 30.7686V30.5904C129.161 30.3913 129.135 30.2445 129.077 30.1502C129.025 30.0506 128.92 29.9772 128.799 29.9248C128.946 29.8724 129.077 29.7781 129.14 29.6471C129.208 29.5213 129.234 29.3903 129.239 29.254C129.239 29.1387 129.224 29.0496 129.192 28.9605C129.15 28.8714 129.093 28.7928 129.03 28.7142C128.962 28.6251 128.867 28.5622 128.768 28.5203C128.658 28.4732 128.522 28.4469 128.328 28.4365H126.934ZM127.521 28.9396H128.202C128.333 28.9396 128.417 28.9553 128.48 28.9867C128.595 29.0444 128.658 29.1544 128.658 29.3274C128.658 29.4794 128.59 29.5842 128.48 29.6366C128.411 29.668 128.322 29.6838 128.186 29.6838H127.521V28.9396Z" fill="#CCCCCC"/>
</g>
<defs>
<clipPath id="clip0_4015_15167">
<rect width="131.019" height="32" fill="white" transform="translate(0.00268555 0.34082)"/>
</clipPath>
</defs>
</svg>
