<svg width="18" height="18" viewBox="0 0 18 18" fill="none" xmlns="http://www.w3.org/2000/svg">
<g clip-path="url(#clip0_4688_1829)">
<path d="M17.9822 5.29205C17.9401 4.33564 17.7854 3.67812 17.5639 3.10836C17.3353 2.50359 16.9837 1.96213 16.523 1.51201C16.0729 1.05489 15.5278 0.699691 14.9301 0.474702C14.357 0.253147 13.7029 0.0984842 12.7465 0.0563159C11.783 0.0105764 11.4771 0 9.03324 0C6.58941 0 6.28351 0.0105764 5.32354 0.0527447C4.36713 0.0949129 3.70961 0.249713 3.13999 0.471131C2.53508 0.699691 1.99362 1.05132 1.54351 1.51201C1.08639 1.96213 0.731322 2.50716 0.506195 3.10493C0.284641 3.67812 0.129978 4.33207 0.08781 5.28848C0.0420705 6.25203 0.0314941 6.55792 0.0314941 9.00176C0.0314941 11.4456 0.0420705 11.7515 0.0842387 12.7115C0.126407 13.6679 0.281207 14.3254 0.502762 14.8952C0.731322 15.4999 1.08639 16.0414 1.54351 16.4915C1.99362 16.9486 2.53865 17.3038 3.13642 17.5288C3.70961 17.7504 4.36356 17.905 5.3201 17.9472C6.27994 17.9895 6.58597 17.9999 9.0298 17.9999C11.4736 17.9999 11.7795 17.9895 12.7395 17.9472C13.6959 17.905 14.3534 17.7504 14.9231 17.5288C16.1327 17.0611 17.0892 16.1047 17.5568 14.8952C17.7783 14.322 17.9331 13.6679 17.9752 12.7115C18.0174 11.7515 18.028 11.4456 18.028 9.00176C18.028 6.55792 18.0244 6.25203 17.9822 5.29205ZM16.3613 12.6411C16.3226 13.5202 16.1749 13.9949 16.0518 14.3114C15.7494 15.0956 15.127 15.7179 14.3429 16.0204C14.0264 16.1434 13.5483 16.2911 12.6726 16.3297C11.7232 16.372 11.4385 16.3824 9.03681 16.3824C6.63514 16.3824 6.34684 16.372 5.40087 16.3297C4.52179 16.2911 4.04709 16.1434 3.73062 16.0204C3.34039 15.8761 2.98519 15.6476 2.69688 15.3487C2.398 15.0568 2.16944 14.7052 2.02521 14.315C1.90214 13.9985 1.75448 13.5202 1.71589 12.6447C1.67358 11.6953 1.66314 11.4104 1.66314 9.00876C1.66314 6.60709 1.67358 6.31878 1.71589 5.37295C1.75448 4.49387 1.90214 4.01917 2.02521 3.7027C2.16944 3.31234 2.398 2.95727 2.70045 2.66883C2.9922 2.36994 3.34383 2.14138 3.73419 1.99729C4.05066 1.87422 4.52893 1.72656 5.40444 1.68783C6.35384 1.64566 6.63872 1.63508 9.04024 1.63508C11.4455 1.63508 11.7302 1.64566 12.6762 1.68783C13.5553 1.72656 14.03 1.87422 14.3464 1.99729C14.7367 2.14138 15.0919 2.36994 15.3802 2.66883C15.6791 2.96071 15.9076 3.31234 16.0518 3.7027C16.1749 4.01917 16.3226 4.49731 16.3613 5.37295C16.4035 6.32236 16.414 6.60709 16.414 9.00876C16.414 11.4104 16.4035 11.6917 16.3613 12.6411Z" fill="#4D4D4D"/>
<path d="M9.03337 4.37793C6.48061 4.37793 4.40942 6.44898 4.40942 9.00188C4.40942 11.5548 6.48061 13.6258 9.03337 13.6258C11.5863 13.6258 13.6573 11.5548 13.6573 9.00188C13.6573 6.44898 11.5863 4.37793 9.03337 4.37793ZM9.03337 12.0013C7.37727 12.0013 6.03393 10.6581 6.03393 9.00188C6.03393 7.34564 7.37727 6.00244 9.03337 6.00244C10.6896 6.00244 12.0328 7.34564 12.0328 9.00188C12.0328 10.6581 10.6896 12.0013 9.03337 12.0013Z" fill="#4D4D4D"/>
<path d="M14.9199 4.19472C14.9199 4.79084 14.4365 5.2742 13.8402 5.2742C13.2441 5.2742 12.7607 4.79084 12.7607 4.19472C12.7607 3.59845 13.2441 3.11523 13.8402 3.11523C14.4365 3.11523 14.9199 3.59845 14.9199 4.19472Z" fill="#4D4D4D"/>
</g>
<defs>
<clipPath id="clip0_4688_1829">
<rect width="18" height="18" fill="white"/>
</clipPath>
</defs>
</svg>
