<svg width="9" height="9" viewBox="0 0 9 9" fill="none" xmlns="http://www.w3.org/2000/svg">
<path d="M-0.000976562 1.71381C-0.000976562 1.45624 0.0899589 1.24374 0.271822 1.07633C0.453685 0.908903 0.690116 0.825195 0.981098 0.825195C1.26689 0.825195 1.49811 0.907613 1.67479 1.07246C1.85665 1.24246 1.94758 1.46397 1.94758 1.737C1.94758 1.98426 1.85925 2.19031 1.68258 2.35516C1.50072 2.52516 1.26169 2.61016 0.96551 2.61016H0.957716C0.671924 2.61016 0.4407 2.52516 0.264028 2.35516C0.0873556 2.18517 -0.000976562 1.97138 -0.000976562 1.71381ZM0.100349 8.47504V3.31333H1.83067V8.47504H0.100349ZM2.78936 8.47504H4.51969V5.59283C4.51969 5.41252 4.54047 5.27343 4.58204 5.17556C4.65478 5.00041 4.7652 4.85231 4.9133 4.73125C5.06139 4.61019 5.24715 4.54967 5.47058 4.54967C6.05256 4.54967 6.34354 4.9386 6.34354 5.71646V8.47504H8.07386V5.51556C8.07386 4.75314 7.892 4.1749 7.52826 3.78082C7.16453 3.38673 6.68389 3.18969 6.08633 3.18969C5.41602 3.18969 4.89381 3.4756 4.51969 4.0474V4.06286H4.51189L4.51969 4.0474V3.31333H2.78936C2.79975 3.47817 2.80495 3.99073 2.80495 4.85102C2.80495 5.71131 2.79975 6.91931 2.78936 8.47504Z" fill="#00283D"/>
</svg>
