<svg width="45" height="33" viewBox="0 0 45 33" fill="none" xmlns="http://www.w3.org/2000/svg">
<rect x="0.5" y="0.84082" width="44" height="30.7647" rx="4.79412" fill="#1A1A1A" stroke="#333333"/>
<path fill-rule="evenodd" clip-rule="evenodd" d="M28.5583 24.7333C33.5147 24.7333 37.5327 20.7632 37.5327 15.8657C37.5327 10.9682 33.5147 6.99805 28.5583 6.99805C26.3369 6.99805 24.3041 7.7955 22.7369 9.11649C21.1698 7.79551 19.137 6.99805 16.9156 6.99805C11.9592 6.99805 7.94116 10.9682 7.94116 15.8657C7.94116 20.7632 11.9592 24.7333 16.9156 24.7333C19.137 24.7333 21.1698 23.9359 22.737 22.6149C24.3041 23.9359 26.3369 24.7333 28.5583 24.7333Z" fill="#ED0006"/>
<path fill-rule="evenodd" clip-rule="evenodd" d="M22.7363 22.6148C24.6658 20.9883 25.8893 18.5682 25.8893 15.8657C25.8893 13.1632 24.6658 10.7431 22.7363 9.11658C24.3035 7.79554 26.3364 6.99805 28.5578 6.99805C33.5142 6.99805 37.5322 10.9682 37.5322 15.8657C37.5322 20.7632 33.5142 24.7333 28.5578 24.7333C26.3364 24.7333 24.3035 23.9358 22.7363 22.6148Z" fill="#F9A000"/>
<path fill-rule="evenodd" clip-rule="evenodd" d="M22.737 22.6149C24.6665 20.9884 25.8899 18.5683 25.8899 15.8658C25.8899 13.1633 24.6665 10.7432 22.737 9.1167C20.8075 10.7432 19.584 13.1633 19.584 15.8658C19.584 18.5683 20.8075 20.9884 22.737 22.6149Z" fill="#FF5E00"/>
</svg>
