<svg width="40" height="41" viewBox="0 0 40 41" fill="none" xmlns="http://www.w3.org/2000/svg">
<g clip-path="url(#clip0_3917_19128)">
<path d="M38.3959 9.93014C38.3959 9.77818 38.3622 9.62621 38.2946 9.48269C38.1595 9.19565 37.8978 9.00148 37.6108 8.94238L20.4137 0.601309C20.1351 0.46623 19.8058 0.46623 19.5272 0.601309L2.16124 9.01836C1.82354 9.17877 1.60404 9.51646 1.58716 9.89637V9.90481C1.58716 9.91325 1.58716 9.9217 1.58716 9.93858V31.0614C1.58716 31.4498 1.80666 31.8043 2.16124 31.9732L19.5272 40.3903C19.5357 40.3903 19.5357 40.3903 19.5441 40.3987C19.5694 40.4071 19.5948 40.4156 19.6201 40.4325C19.6285 40.4325 19.637 40.4409 19.6539 40.4409C19.6792 40.4493 19.7045 40.4578 19.7298 40.4662C19.7383 40.4662 19.7467 40.4747 19.7552 40.4747C19.7805 40.4831 19.8143 40.4831 19.8396 40.4916C19.848 40.4916 19.8565 40.4916 19.8649 40.4916C19.8987 40.4916 19.9409 40.5 19.9747 40.5C20.0084 40.5 20.0506 40.5 20.0844 40.4916C20.0929 40.4916 20.1013 40.4916 20.1097 40.4916C20.1351 40.4916 20.1688 40.4831 20.1942 40.4747C20.2026 40.4747 20.211 40.4662 20.2195 40.4662C20.2448 40.4578 20.2701 40.4493 20.2955 40.4409C20.3039 40.4409 20.3124 40.4325 20.3292 40.4325C20.3546 40.424 20.3799 40.4156 20.4052 40.3987C20.4137 40.3987 20.4137 40.3987 20.4221 40.3903L37.8387 31.9479C38.1849 31.779 38.4128 31.4244 38.4128 31.0361V9.95547C38.3959 9.94702 38.3959 9.93858 38.3959 9.93014ZM19.9662 2.63592L35.0274 9.93858L29.4808 12.6317L14.4196 5.32904L19.9662 2.63592ZM19.9662 17.2412L4.90501 9.93858L12.0979 6.45188L27.1591 13.7545L19.9662 17.2412ZM3.61333 11.568L18.9531 19.0057V37.8575L3.61333 30.4198V11.568ZM20.9793 37.8575V19.0057L28.1807 15.5106V20.4409C28.1807 20.9981 28.6365 21.454 29.1937 21.454C29.7509 21.454 30.2068 20.9981 30.2068 20.4409V14.5228L36.3698 11.5342V30.386L20.9793 37.8575Z" fill="#00283D"/>
</g>
<defs>
<clipPath id="clip0_3917_19128">
<rect width="40" height="40" fill="white" transform="translate(0 0.5)"/>
</clipPath>
</defs>
</svg>
