<svg width="65" height="33" viewBox="0 0 65 33" fill="none" xmlns="http://www.w3.org/2000/svg">
<rect x="0.5" y="0.84082" width="64" height="31" rx="4.79412" fill="#1A1A1A" stroke="#333333"/>
<g clip-path="url(#clip0_5185_4806)">
<rect width="11" height="11" transform="translate(5 4.34082)" fill="#1A1A1A"/>
<path d="M13.7083 9.38281H7.29167C6.78541 9.38281 6.375 9.79322 6.375 10.2995V13.5078C6.375 14.0141 6.78541 14.4245 7.29167 14.4245H13.7083C14.2146 14.4245 14.625 14.0141 14.625 13.5078V10.2995C14.625 9.79322 14.2146 9.38281 13.7083 9.38281Z" stroke="white" stroke-width="0.916667" stroke-linecap="round" stroke-linejoin="round"/>
<path d="M8.20837 9.38281V7.54948C8.20837 6.94169 8.44982 6.3588 8.87959 5.92903C9.30936 5.49926 9.89225 5.25781 10.5 5.25781C11.1078 5.25781 11.6907 5.49926 12.1205 5.92903C12.5503 6.3588 12.7917 6.94169 12.7917 7.54948V9.38281" stroke="white" stroke-width="0.916667" stroke-linecap="round" stroke-linejoin="round"/>
</g>
<path d="M21.278 13.4178C20.772 13.4178 20.3173 13.3298 19.914 13.1538C19.518 12.9705 19.2063 12.7212 18.979 12.4058C18.7517 12.0832 18.6343 11.7128 18.627 11.2948H19.694C19.7307 11.6542 19.8773 11.9585 20.134 12.2078C20.398 12.4498 20.7793 12.5708 21.278 12.5708C21.7547 12.5708 22.1287 12.4535 22.4 12.2188C22.6787 11.9768 22.818 11.6688 22.818 11.2948C22.818 11.0015 22.7373 10.7632 22.576 10.5798C22.4147 10.3965 22.213 10.2572 21.971 10.1618C21.729 10.0665 21.4027 9.96382 20.992 9.85382C20.486 9.72182 20.079 9.58982 19.771 9.45782C19.4703 9.32582 19.21 9.12049 18.99 8.84182C18.7773 8.55582 18.671 8.17449 18.671 7.69782C18.671 7.27982 18.7773 6.90949 18.99 6.58682C19.2027 6.26415 19.4997 6.01482 19.881 5.83882C20.2697 5.66282 20.7133 5.57482 21.212 5.57482C21.9307 5.57482 22.5173 5.75449 22.972 6.11382C23.434 6.47315 23.6943 6.94982 23.753 7.54382H22.653C22.6163 7.25049 22.4623 6.99382 22.191 6.77382C21.9197 6.54649 21.5603 6.43282 21.113 6.43282C20.695 6.43282 20.354 6.54282 20.09 6.76282C19.826 6.97549 19.694 7.27615 19.694 7.66482C19.694 7.94349 19.771 8.17082 19.925 8.34682C20.0863 8.52282 20.2807 8.65849 20.508 8.75382C20.7427 8.84182 21.069 8.94449 21.487 9.06182C21.993 9.20115 22.4 9.34049 22.708 9.47982C23.016 9.61182 23.28 9.82082 23.5 10.1068C23.72 10.3855 23.83 10.7668 23.83 11.2508C23.83 11.6248 23.731 11.9768 23.533 12.3068C23.335 12.6368 23.0417 12.9045 22.653 13.1098C22.2643 13.3152 21.806 13.4178 21.278 13.4178ZM30.8031 10.0958C30.8031 10.2865 30.7921 10.4882 30.7701 10.7008H25.9521C25.9887 11.2948 26.1904 11.7605 26.5571 12.0978C26.9311 12.4278 27.3821 12.5928 27.9101 12.5928C28.3427 12.5928 28.7021 12.4938 28.9881 12.2958C29.2814 12.0905 29.4867 11.8192 29.6041 11.4818H30.6821C30.5207 12.0612 30.1981 12.5342 29.7141 12.9008C29.2301 13.2602 28.6287 13.4398 27.9101 13.4398C27.3381 13.4398 26.8247 13.3115 26.3701 13.0548C25.9227 12.7982 25.5707 12.4352 25.3141 11.9658C25.0574 11.4892 24.9291 10.9392 24.9291 10.3158C24.9291 9.69249 25.0537 9.14615 25.3031 8.67682C25.5524 8.20749 25.9007 7.84815 26.3481 7.59882C26.8027 7.34215 27.3234 7.21382 27.9101 7.21382C28.4821 7.21382 28.9881 7.33849 29.4281 7.58782C29.8681 7.83715 30.2054 8.18182 30.4401 8.62182C30.6821 9.05449 30.8031 9.54582 30.8031 10.0958ZM29.7691 9.88682C29.7691 9.50549 29.6847 9.17915 29.5161 8.90782C29.3474 8.62915 29.1164 8.42015 28.8231 8.28082C28.5371 8.13415 28.2181 8.06082 27.8661 8.06082C27.3601 8.06082 26.9274 8.22215 26.5681 8.54482C26.2161 8.86749 26.0144 9.31482 25.9631 9.88682H29.7691ZM31.7503 10.3158C31.7503 9.69249 31.875 9.14982 32.1243 8.68782C32.3737 8.21849 32.7183 7.85549 33.1583 7.59882C33.6057 7.34215 34.1153 7.21382 34.6873 7.21382C35.428 7.21382 36.0367 7.39349 36.5133 7.75282C36.9973 8.11215 37.3163 8.61082 37.4703 9.24882H36.3923C36.2897 8.88215 36.088 8.59249 35.7873 8.37982C35.494 8.16715 35.1273 8.06082 34.6873 8.06082C34.1153 8.06082 33.6533 8.25882 33.3013 8.65482C32.9493 9.04349 32.7733 9.59715 32.7733 10.3158C32.7733 11.0418 32.9493 11.6028 33.3013 11.9988C33.6533 12.3948 34.1153 12.5928 34.6873 12.5928C35.1273 12.5928 35.494 12.4902 35.7873 12.2848C36.0807 12.0795 36.2823 11.7862 36.3923 11.4048H37.4703C37.309 12.0208 36.9863 12.5158 36.5023 12.8898C36.0183 13.2565 35.4133 13.4398 34.6873 13.4398C34.1153 13.4398 33.6057 13.3115 33.1583 13.0548C32.7183 12.7982 32.3737 12.4352 32.1243 11.9658C31.875 11.4965 31.7503 10.9465 31.7503 10.3158ZM44.152 7.31282V13.3408H43.151V12.4498C42.9603 12.7578 42.6927 12.9998 42.348 13.1758C42.0107 13.3445 41.6367 13.4288 41.226 13.4288C40.7567 13.4288 40.335 13.3335 39.961 13.1428C39.587 12.9448 39.29 12.6515 39.07 12.2628C38.8573 11.8742 38.751 11.4012 38.751 10.8438V7.31282H39.741V10.7118C39.741 11.3058 39.8913 11.7642 40.192 12.0868C40.4927 12.4022 40.9033 12.5598 41.424 12.5598C41.9593 12.5598 42.381 12.3948 42.689 12.0648C42.997 11.7348 43.151 11.2545 43.151 10.6238V7.31282H44.152ZM46.8431 8.29182C47.0191 7.94715 47.2685 7.67949 47.5911 7.48882C47.9211 7.29815 48.3208 7.20282 48.7901 7.20282V8.23682H48.5261C47.4041 8.23682 46.8431 8.84549 46.8431 10.0628V13.3408H45.8421V7.31282H46.8431V8.29182ZM55.4456 10.0958C55.4456 10.2865 55.4346 10.4882 55.4126 10.7008H50.5946C50.6313 11.2948 50.833 11.7605 51.1996 12.0978C51.5736 12.4278 52.0246 12.5928 52.5526 12.5928C52.9853 12.5928 53.3446 12.4938 53.6306 12.2958C53.924 12.0905 54.1293 11.8192 54.2466 11.4818H55.3246C55.1633 12.0612 54.8406 12.5342 54.3566 12.9008C53.8726 13.2602 53.2713 13.4398 52.5526 13.4398C51.9806 13.4398 51.4673 13.3115 51.0126 13.0548C50.5653 12.7982 50.2133 12.4352 49.9566 11.9658C49.7 11.4892 49.5716 10.9392 49.5716 10.3158C49.5716 9.69249 49.6963 9.14615 49.9456 8.67682C50.195 8.20749 50.5433 7.84815 50.9906 7.59882C51.4453 7.34215 51.966 7.21382 52.5526 7.21382C53.1246 7.21382 53.6306 7.33849 54.0706 7.58782C54.5106 7.83715 54.848 8.18182 55.0826 8.62182C55.3246 9.05449 55.4456 9.54582 55.4456 10.0958ZM54.4116 9.88682C54.4116 9.50549 54.3273 9.17915 54.1586 8.90782C53.99 8.62915 53.759 8.42015 53.4656 8.28082C53.1796 8.13415 52.8606 8.06082 52.5086 8.06082C52.0026 8.06082 51.57 8.22215 51.2106 8.54482C50.8586 8.86749 50.657 9.31482 50.6056 9.88682H54.4116Z" fill="white"/>
<path d="M11.8032 20.5568C11.8032 21.0048 11.6952 21.4248 11.4792 21.8168C11.2712 22.2088 10.9392 22.5248 10.4832 22.7648C10.0352 23.0048 9.46719 23.1248 8.77919 23.1248H7.37519V26.3408H5.69519V17.9648H8.77919C9.42719 17.9648 9.97919 18.0768 10.4352 18.3008C10.8912 18.5248 11.2312 18.8328 11.4552 19.2248C11.6872 19.6168 11.8032 20.0608 11.8032 20.5568ZM8.70719 21.7688C9.17119 21.7688 9.51519 21.6648 9.73919 21.4568C9.96319 21.2408 10.0752 20.9408 10.0752 20.5568C10.0752 19.7408 9.61919 19.3328 8.70719 19.3328H7.37519V21.7688H8.70719ZM12.564 22.9928C12.564 22.3208 12.696 21.7248 12.96 21.2048C13.232 20.6848 13.596 20.2848 14.052 20.0048C14.516 19.7248 15.032 19.5848 15.6 19.5848C16.096 19.5848 16.528 19.6848 16.896 19.8848C17.272 20.0848 17.572 20.3368 17.796 20.6408V19.6928H19.488V26.3408H17.796V25.3688C17.58 25.6808 17.28 25.9408 16.896 26.1488C16.52 26.3488 16.084 26.4488 15.588 26.4488C15.028 26.4488 14.516 26.3048 14.052 26.0168C13.596 25.7288 13.232 25.3248 12.96 24.8048C12.696 24.2768 12.564 23.6728 12.564 22.9928ZM17.796 23.0168C17.796 22.6088 17.716 22.2608 17.556 21.9728C17.396 21.6768 17.18 21.4528 16.908 21.3008C16.636 21.1408 16.344 21.0608 16.032 21.0608C15.72 21.0608 15.432 21.1368 15.168 21.2888C14.904 21.4408 14.688 21.6648 14.52 21.9608C14.36 22.2488 14.28 22.5928 14.28 22.9928C14.28 23.3928 14.36 23.7448 14.52 24.0488C14.688 24.3448 14.904 24.5728 15.168 24.7328C15.44 24.8928 15.728 24.9728 16.032 24.9728C16.344 24.9728 16.636 24.8968 16.908 24.7448C17.18 24.5848 17.396 24.3608 17.556 24.0728C17.716 23.7768 17.796 23.4248 17.796 23.0168ZM27.4888 19.6928L23.3728 29.4848H21.5848L23.0248 26.1728L20.3608 19.6928H22.2448L23.9608 24.3368L25.7008 19.6928H27.4888ZM36.6504 19.5968C37.4664 19.5968 38.1224 19.8488 38.6184 20.3528C39.1224 20.8488 39.3744 21.5448 39.3744 22.4408V26.3408H37.6944V22.6688C37.6944 22.1488 37.5624 21.7528 37.2984 21.4808C37.0344 21.2008 36.6744 21.0608 36.2184 21.0608C35.7624 21.0608 35.3984 21.2008 35.1264 21.4808C34.8624 21.7528 34.7304 22.1488 34.7304 22.6688V26.3408H33.0504V22.6688C33.0504 22.1488 32.9184 21.7528 32.6544 21.4808C32.3904 21.2008 32.0304 21.0608 31.5744 21.0608C31.1104 21.0608 30.7424 21.2008 30.4704 21.4808C30.2064 21.7528 30.0744 22.1488 30.0744 22.6688V26.3408H28.3944V19.6928H30.0744V20.4968C30.2904 20.2168 30.5664 19.9968 30.9024 19.8368C31.2464 19.6768 31.6224 19.5968 32.0304 19.5968C32.5504 19.5968 33.0144 19.7088 33.4224 19.9328C33.8304 20.1488 34.1464 20.4608 34.3704 20.8688C34.5864 20.4848 34.8984 20.1768 35.3064 19.9448C35.7224 19.7128 36.1704 19.5968 36.6504 19.5968ZM47.1486 22.8728C47.1486 23.1128 47.1326 23.3288 47.1006 23.5208H42.2406C42.2806 24.0008 42.4486 24.3768 42.7446 24.6488C43.0406 24.9208 43.4046 25.0568 43.8366 25.0568C44.4606 25.0568 44.9046 24.7888 45.1686 24.2528H46.9806C46.7886 24.8928 46.4206 25.4208 45.8766 25.8368C45.3326 26.2448 44.6646 26.4488 43.8726 26.4488C43.2326 26.4488 42.6566 26.3088 42.1446 26.0288C41.6406 25.7408 41.2446 25.3368 40.9566 24.8168C40.6766 24.2968 40.5366 23.6968 40.5366 23.0168C40.5366 22.3288 40.6766 21.7248 40.9566 21.2048C41.2366 20.6848 41.6286 20.2848 42.1326 20.0048C42.6366 19.7248 43.2166 19.5848 43.8726 19.5848C44.5046 19.5848 45.0686 19.7208 45.5646 19.9928C46.0686 20.2648 46.4566 20.6528 46.7286 21.1568C47.0086 21.6528 47.1486 22.2248 47.1486 22.8728ZM45.4086 22.3928C45.4006 21.9608 45.2446 21.6168 44.9406 21.3608C44.6366 21.0968 44.2646 20.9648 43.8246 20.9648C43.4086 20.9648 43.0566 21.0928 42.7686 21.3488C42.4886 21.5968 42.3166 21.9448 42.2526 22.3928H45.4086ZM52.0589 19.5968C52.8509 19.5968 53.4909 19.8488 53.9789 20.3528C54.4669 20.8488 54.7109 21.5448 54.7109 22.4408V26.3408H53.0309V22.6688C53.0309 22.1408 52.8989 21.7368 52.6349 21.4568C52.3709 21.1688 52.0109 21.0248 51.5549 21.0248C51.0909 21.0248 50.7229 21.1688 50.4509 21.4568C50.1869 21.7368 50.0549 22.1408 50.0549 22.6688V26.3408H48.3749V19.6928H50.0549V20.5208C50.2789 20.2328 50.5629 20.0088 50.9069 19.8488C51.2589 19.6808 51.6429 19.5968 52.0589 19.5968ZM58.2645 21.0728V24.2888C58.2645 24.5128 58.3165 24.6768 58.4205 24.7808C58.5325 24.8768 58.7165 24.9248 58.9725 24.9248H59.7525V26.3408H58.6965C57.2805 26.3408 56.5725 25.6528 56.5725 24.2768V21.0728H55.7805V19.6928H56.5725V18.0488H58.2645V19.6928H59.7525V21.0728H58.2645Z" fill="white"/>
<defs>
<clipPath id="clip0_5185_4806">
<rect width="11" height="11" fill="white" transform="translate(5 4.34082)"/>
</clipPath>
</defs>
</svg>
