<svg width="41" height="41" viewBox="0 0 41 41" fill="none" xmlns="http://www.w3.org/2000/svg">
<g clip-path="url(#clip0_3917_19100)">
<path d="M36.6468 35.1678L34.345 9.22697C34.3036 8.71362 33.873 8.32447 33.3514 8.32447H28.4994C28.4911 4.01066 24.9805 0.5 20.6667 0.5C16.3528 0.5 12.8422 4.01066 12.8339 8.32447H7.98191C7.46856 8.32447 7.038 8.71362 6.98832 9.22697L4.68652 35.1678C4.68652 35.2009 4.68652 35.2257 4.68652 35.2589C4.68652 38.1485 7.34436 40.5 10.6066 40.5H30.7267C33.9889 40.5 36.6468 38.1485 36.6468 35.2589C36.6468 35.2257 36.6468 35.2009 36.6468 35.1678ZM20.6667 2.48717C23.8875 2.48717 26.504 5.1036 26.5122 8.32447H14.8211C14.8294 5.1036 17.4458 2.48717 20.6667 2.48717ZM30.7267 38.5046H10.6066C8.45386 38.5046 6.69853 37.0721 6.67369 35.292L8.89269 10.3116H12.8339V13.7975C12.8339 14.3439 13.281 14.791 13.8275 14.791C14.374 14.791 14.8211 14.3439 14.8211 13.7975V10.3116H26.5122V13.7975C26.5122 14.3439 26.9593 14.791 27.5058 14.791C28.0523 14.791 28.4994 14.3439 28.4994 13.7975V10.3116H32.4406L34.6596 35.3002C34.6348 37.0721 32.8794 38.5046 30.7267 38.5046Z" fill="#00283D"/>
<path d="M24.7982 21.1831L18.9361 27.0453L16.5432 24.6524C16.154 24.2632 15.5248 24.2632 15.1356 24.6524C14.7465 25.0415 14.7465 25.6708 15.1356 26.06L18.2323 29.1566C18.4227 29.3471 18.6794 29.4464 18.9361 29.4464C19.1927 29.4464 19.4411 29.3471 19.6399 29.1566L26.2058 22.5907C26.5949 22.2015 26.5949 21.5723 26.2058 21.1831C25.8166 20.8022 25.1874 20.8022 24.7982 21.1831Z" fill="#00283D"/>
</g>
<defs>
<clipPath id="clip0_3917_19100">
<rect width="40" height="40" fill="white" transform="translate(0.666748 0.5)"/>
</clipPath>
</defs>
</svg>
