<svg width="41" height="41" viewBox="0 0 41 41" fill="none" xmlns="http://www.w3.org/2000/svg">
<g clip-path="url(#clip0_3917_19069)">
<path d="M34.018 15.7101V14.1723C34.018 10.4916 32.7155 7.07143 30.3542 4.53361C27.934 1.92857 24.6063 0.5 20.976 0.5H19.7071C16.0768 0.5 12.7491 1.92857 10.3289 4.53361C7.9676 7.07143 6.66507 10.4916 6.66507 14.1723V15.7101C3.79953 15.9034 1.52222 18.2899 1.52222 21.2059V23.6092C1.52222 26.6429 3.99281 29.1134 7.02642 29.1134H10.1273C10.6819 29.1134 11.1357 28.6597 11.1357 28.105V16.7017C11.1357 16.1471 10.6819 15.6933 10.1273 15.6933H8.68188V14.1723C8.68188 7.52521 13.4214 2.51681 19.6987 2.51681H20.9676C27.2533 2.51681 31.9844 7.52521 31.9844 14.1723V15.6933H30.539C29.9844 15.6933 29.5306 16.1471 29.5306 16.7017V28.0966C29.5306 28.6513 29.9844 29.105 30.539 29.105H31.9508C31.539 34.3655 27.9172 35.584 26.2365 35.8613C25.7743 34.4412 24.4382 33.416 22.8668 33.416H20.3457C18.3962 33.416 16.8079 35.0042 16.8079 36.9538C16.8079 38.9034 18.3962 40.5 20.3457 40.5H22.8752C24.5054 40.5 25.8752 39.3908 26.2869 37.895C27.1105 37.7773 28.413 37.4832 29.7071 36.7269C31.5306 35.6597 33.6903 33.4832 33.976 29.0966C36.8584 28.9202 39.1441 26.5252 39.1441 23.6008V21.1975C39.1525 18.2899 36.8836 15.895 34.018 15.7101ZM9.13566 27.0882H7.04323C5.11886 27.0882 3.55583 25.5252 3.55583 23.6008V21.1975C3.55583 19.2731 5.11886 17.7101 7.04323 17.7101H9.13566V27.0882ZM22.8752 38.4832H20.3457C19.5054 38.4832 18.8247 37.8025 18.8247 36.9622C18.8247 36.1218 19.5054 35.4412 20.3457 35.4412H22.8752C23.7155 35.4412 24.3962 36.1218 24.3962 36.9622C24.3962 37.8025 23.7155 38.4832 22.8752 38.4832ZM37.1357 23.6008C37.1357 25.5252 35.5726 27.0882 33.6483 27.0882H31.5558V17.7101H33.6483C35.5726 17.7101 37.1357 19.2731 37.1357 21.1975V23.6008Z" fill="#00283D"/>
</g>
<defs>
<clipPath id="clip0_3917_19069">
<rect width="40" height="40" fill="white" transform="translate(0.333252 0.5)"/>
</clipPath>
</defs>
</svg>
