<svg width="32" height="27" viewBox="0 0 32 27" fill="none" xmlns="http://www.w3.org/2000/svg">
<path opacity="0.3" fill-rule="evenodd" clip-rule="evenodd" d="M23.8222 0.34082C20.4357 0.34082 17.6851 2.99778 17.6851 6.27442C17.6851 9.54903 20.4357 12.208 23.8222 12.208C29.6404 12.208 26.2689 22.5118 18.931 23.5851C18.5848 23.6345 18.2688 23.7986 18.0403 24.0479C17.8117 24.2971 17.6857 24.615 17.6851 24.944C17.6851 25.7864 18.487 26.4527 19.3751 26.3251C32.7122 24.4255 37.4546 0.342845 23.8222 0.342845V0.34082ZM6.13933 0.34082C2.74847 0.34082 0 2.99575 0 6.27442C0 9.54701 2.74847 12.204 6.13933 12.204C11.9553 12.204 8.58385 22.5118 1.24597 23.5851C0.900119 23.6344 0.58443 23.7983 0.355931 24.0471C0.127431 24.2959 0.00118682 24.6133 0 24.942C0 25.7844 0.801907 26.4507 1.68788 26.3231C15.0293 24.4235 19.7717 0.34082 6.13933 0.34082Z" fill="#006BA3"/>
</svg>
