<svg width="47" height="46" viewBox="0 0 47 46" fill="none" xmlns="http://www.w3.org/2000/svg">
<circle cx="23.5" cy="23" r="23" fill="#F2F2F2"/>
<path d="M23.5 16.541C17.25 16.541 14.75 23.0001 14.75 23.0001C14.75 23.0001 17.25 29.4577 23.5 29.4577C29.75 29.4577 32.25 23.0001 32.25 23.0001C32.25 23.0001 29.75 16.541 23.5 16.541V16.541Z" stroke="#1A1A1A" stroke-width="1.5" stroke-linecap="round" stroke-linejoin="round"/>
<path d="M23.5 26.125C24.3288 26.125 25.1237 25.7958 25.7097 25.2097C26.2958 24.6237 26.625 23.8288 26.625 23C26.625 22.1712 26.2958 21.3763 25.7097 20.7903C25.1237 20.2042 24.3288 19.875 23.5 19.875C22.6712 19.875 21.8763 20.2042 21.2903 20.7903C20.7042 21.3763 20.375 22.1712 20.375 23C20.375 23.8288 20.7042 24.6237 21.2903 25.2097C21.8763 25.7958 22.6712 26.125 23.5 26.125V26.125Z" stroke="#1A1A1A" stroke-width="1.5" stroke-linecap="round" stroke-linejoin="round"/>
</svg>
