<svg width="45" height="33" viewBox="0 0 45 33" fill="none" xmlns="http://www.w3.org/2000/svg">
<rect x="0.5" y="0.84082" width="44" height="30.7647" rx="4.79412" fill="#1A1A1A" stroke="#333333"/>
<path fill-rule="evenodd" clip-rule="evenodd" d="M14.2298 21.3298H11.5037L9.45943 13.3014C9.3624 12.9321 9.15638 12.6056 8.85333 12.4518C8.09703 12.0651 7.26364 11.7573 6.35449 11.6021V11.293H10.7461C11.3522 11.293 11.8067 11.7573 11.8825 12.2965L12.9432 18.0877L15.668 11.293H18.3184L14.2298 21.3298ZM19.8327 21.3298H17.2581L19.3781 11.293H21.9527L19.8327 21.3298ZM25.2856 14.0735C25.3614 13.5329 25.8159 13.2238 26.3463 13.2238C27.1797 13.1462 28.0875 13.3014 28.8451 13.6868L29.2997 11.5258C28.5421 11.2167 27.7087 11.0615 26.9524 11.0615C24.4535 11.0615 22.6352 12.4518 22.6352 14.3813C22.6352 15.8491 23.9232 16.6198 24.8323 17.0841C25.8159 17.5471 26.1947 17.8562 26.119 18.3192C26.119 19.0136 25.3614 19.3227 24.6051 19.3227C23.6959 19.3227 22.7868 19.0912 21.9547 18.7045L21.5001 20.8668C22.4093 21.2522 23.3929 21.4074 24.302 21.4074C27.1039 21.4837 28.8451 20.0948 28.8451 18.0101C28.8451 15.3848 25.2856 15.2309 25.2856 14.0735ZM37.8554 21.3298L35.8111 11.293H33.6153C33.1608 11.293 32.7062 11.6021 32.5547 12.0651L28.7692 21.3298H31.4196L31.9486 19.8633H35.205L35.5081 21.3298H37.8554ZM33.9923 13.9959L34.7486 17.7786H32.6286L33.9923 13.9959Z" fill="white"/>
</svg>
