<svg width="23" height="17" viewBox="0 0 23 17" fill="none" xmlns="http://www.w3.org/2000/svg">
<path d="M22.0088 6.21731C22.0583 4.78596 21.7452 3.36533 21.0988 2.08731C20.6602 1.56291 20.0515 1.20902 19.3788 1.08731C16.5963 0.834834 13.8023 0.731352 11.0088 0.777308C8.22546 0.729267 5.44152 0.829408 2.66882 1.07731C2.12064 1.17703 1.61333 1.43415 1.20882 1.81731C0.308816 2.64731 0.208816 4.06731 0.108816 5.26731C-0.036272 7.42487 -0.036272 9.58974 0.108816 11.7473C0.137746 12.4227 0.23831 13.0931 0.408816 13.7473C0.529391 14.2524 0.773339 14.7197 1.11882 15.1073C1.52608 15.5108 2.0452 15.7825 2.60882 15.8873C4.76473 16.1534 6.93703 16.2637 9.10882 16.2173C12.6088 16.2673 15.6788 16.2173 19.3088 15.9373C19.8863 15.839 20.42 15.5669 20.8388 15.1573C21.1188 14.8772 21.3279 14.5344 21.4488 14.1573C21.8064 13.0599 21.9821 11.9114 21.9688 10.7573C22.0088 10.1973 22.0088 6.81731 22.0088 6.21731ZM8.74882 11.3573V5.16731L14.6688 8.27731C13.0088 9.19731 10.8188 10.2373 8.74882 11.3573Z" fill="#E45200"/>
</svg>
